<?xml version="1.0" standalone="no"?>
<!DOCTYPE svg PUBLIC "-//W3C//DTD SVG 20010904//EN"
 "http://www.w3.org/TR/2001/REC-SVG-20010904/DTD/svg10.dtd">
<svg version="1.0" xmlns="http://www.w3.org/2000/svg"
 width="1600.000000pt" height="991.000000pt" viewBox="0 0 1600.000000 991.000000"
 preserveAspectRatio="xMidYMid meet">

<g transform="translate(0.000000,991.000000) scale(0.100000,-0.100000)"
fill="#000000" stroke="none">
<path d="M12100 9906 c0 -2 15 -19 33 -38 17 -19 43 -48 57 -66 25 -32 212
-132 247 -132 14 0 15 10 9 78 -3 42 -9 96 -12 120 l-6 42 -164 0 c-90 0 -164
-2 -164 -4z"/>
<path d="M15347 9778 c-120 -137 -155 -174 -467 -497 -163 -169 -210 -210
-405 -358 -258 -196 -336 -240 -497 -283 -105 -28 -121 -30 -165 -19 -68 16
-186 75 -232 117 -14 12 -32 22 -40 22 -8 0 -22 6 -30 14 -9 8 -54 26 -101 41
-47 14 -139 47 -205 72 -96 38 -128 55 -161 89 -48 49 -60 88 -33 108 11 7 26
41 36 82 10 38 22 72 27 75 10 8 -25 29 -47 29 -24 0 -85 -68 -92 -103 -12
-57 -57 -129 -88 -139 -17 -7 -27 -16 -25 -26 2 -9 57 -58 123 -109 66 -52
138 -111 160 -131 47 -43 96 -69 220 -116 229 -86 332 -128 355 -144 48 -35
86 -42 260 -51 145 -8 187 -14 247 -34 39 -14 106 -33 147 -42 58 -13 91 -28
145 -65 77 -55 171 -103 171 -89 0 6 8 5 19 -1 13 -7 22 -7 26 0 3 5 23 10 44
10 43 0 114 -42 156 -92 l26 -31 55 12 c30 7 54 15 54 19 0 14 -48 30 -58 20
-7 -7 -16 0 -26 20 -15 30 -15 31 7 28 13 -1 40 -12 59 -24 19 -12 42 -22 49
-23 8 0 6 -4 -6 -10 -16 -7 -13 -8 10 -3 102 21 184 36 210 38 47 4 76 16 69
28 -5 8 -1 9 11 4 14 -5 15 -4 7 7 -8 9 -6 23 7 52 11 22 27 60 37 85 10 25
26 57 36 72 10 14 18 39 18 55 0 15 9 45 20 66 20 37 20 37 0 69 -11 18 -20
49 -20 69 0 32 8 44 57 89 31 29 67 57 79 62 12 6 27 21 33 34 6 13 15 24 21
24 5 0 10 6 10 13 0 32 124 51 255 38 44 -4 81 -7 83 -6 6 5 -127 45 -149 45
-69 1 -154 16 -152 28 2 6 -4 12 -12 12 -20 0 -19 12 5 43 11 14 20 31 20 39
0 18 40 82 47 75 3 -3 14 3 26 13 20 19 20 20 2 40 -17 18 -17 21 -1 46 10 14
15 32 12 40 -3 7 6 26 19 40 14 15 25 31 25 36 0 5 12 20 27 34 28 26 45 52
63 96 6 14 18 29 26 32 8 3 14 12 14 20 0 7 7 16 15 20 12 4 15 31 15 156 l0
150 -268 0 -268 0 -117 -132z"/>
<path d="M12753 9749 c-62 -47 -70 -71 -65 -199 l2 -45 48 50 c30 31 51 64 56
85 15 69 18 85 20 97 1 7 5 16 9 19 12 12 8 34 -5 34 -7 0 -37 -18 -65 -41z"/>
<path d="M12426 9194 c-3 -9 -6 -24 -6 -35 0 -10 -6 -20 -12 -20 -7 -1 5 -5
27 -8 58 -10 66 -5 52 27 -11 26 -35 51 -48 52 -4 0 -10 -7 -13 -16z"/>
<path d="M2590 9080 c-9 -6 -10 -10 -3 -10 6 0 15 5 18 10 8 12 4 12 -15 0z"/>
<path d="M2515 9042 c-250 -137 -573 -463 -814 -822 -167 -250 -205 -314 -286
-494 -40 -89 -93 -206 -118 -261 -36 -79 -51 -129 -71 -240 -15 -77 -29 -150
-32 -161 -3 -12 -1 -25 4 -28 6 -3 113 -24 239 -46 332 -58 335 -58 347 -75 8
-11 37 -16 106 -19 52 -2 106 -7 120 -10 14 -3 68 -14 120 -24 52 -10 102 -21
110 -25 29 -11 116 -35 195 -52 44 -10 114 -28 155 -41 122 -36 134 -38 125
-17 -4 10 -13 34 -20 53 -7 19 -22 40 -34 45 -12 6 -25 21 -28 34 -10 39 5
347 22 451 28 172 116 508 137 521 6 4 22 2 35 -4 14 -6 27 -7 32 -1 8 8 57
118 85 189 16 42 54 97 82 118 17 12 22 14 18 4 -3 -8 3 -17 13 -20 10 -4 26
-12 35 -19 29 -21 34 3 6 26 -16 12 -28 27 -28 34 0 6 -15 15 -32 20 -23 6
-33 14 -33 27 0 31 -31 30 -39 0 -4 -15 -11 -23 -17 -19 -8 4 -7 9 1 14 8 5 3
10 -14 14 -23 6 -25 10 -20 34 4 15 9 31 12 37 4 5 7 31 9 57 2 40 0 48 -15
49 -13 0 -12 2 4 9 28 11 39 29 26 42 -8 8 -18 6 -36 -6 -32 -21 -46 -20 -62
2 -17 23 -50 4 -46 -27 2 -11 -1 -21 -7 -21 -6 0 -8 6 -5 14 3 7 -2 16 -10 19
-22 9 -20 34 3 42 11 3 18 12 15 20 -3 7 0 16 5 20 16 9 3 25 -15 18 -9 -3
-12 -12 -9 -23 4 -14 -1 -19 -27 -23 -38 -5 -75 18 -59 37 6 7 6 18 1 26 -6
10 -4 23 6 37 9 15 11 23 3 23 -6 0 -8 7 -5 17 7 16 -8 33 -30 33 -7 0 -14 -9
-17 -21 -5 -18 -8 -19 -29 -7 -13 7 -24 14 -26 15 -11 5 22 43 38 43 29 0 24
17 -6 23 -20 3 -28 0 -31 -14 -6 -23 -43 -26 -43 -4 0 12 -7 14 -27 9 -22 -4
-25 -3 -13 5 10 7 11 11 3 11 -7 0 -10 6 -7 13 3 8 -5 18 -18 25 -18 8 -19 11
-5 11 9 1 17 6 17 12 0 7 -15 10 -40 7 -22 -2 -40 0 -40 4 0 5 12 8 27 8 26 0
26 1 10 18 -11 10 -20 13 -25 7 -9 -13 -64 -16 -78 -4 -25 20 1 99 27 84 6 -4
34 45 31 56 -1 4 6 6 16 5 9 0 21 9 27 22 5 12 14 22 18 22 5 0 22 11 38 24
15 13 34 26 41 29 7 2 11 7 8 10 -3 3 -28 -6 -55 -21z"/>
<path d="M2540 8731 c0 -5 7 -11 14 -14 10 -4 13 -1 9 9 -6 15 -23 19 -23 5z"/>
<path d="M2740 8571 c0 -12 6 -21 16 -21 9 0 14 7 12 17 -5 25 -28 28 -28 4z"/>
<path d="M2720 8506 c0 -9 5 -16 10 -16 6 0 10 4 10 9 0 6 -4 13 -10 16 -5 3
-10 -1 -10 -9z"/>
<path d="M15920 8430 c0 -5 7 -10 15 -10 8 0 15 5 15 10 0 6 -7 10 -15 10 -8
0 -15 -4 -15 -10z"/>
<path d="M15970 8385 c7 -8 16 -15 21 -15 5 0 9 7 9 15 0 9 -9 15 -21 15 -18
0 -19 -2 -9 -15z"/>
<path d="M2967 8363 c-10 -9 -8 -33 2 -33 5 0 19 9 32 20 l24 19 -26 1 c-14 0
-29 -3 -32 -7z"/>
<path d="M4303 8313 c9 -2 23 -2 30 0 6 3 -1 5 -18 5 -16 0 -22 -2 -12 -5z"/>
<path d="M3400 8293 c0 -9 24 -23 193 -114 71 -38 133 -66 139 -63 12 8 -5 19
-123 82 -53 28 -116 63 -140 77 -44 25 -69 31 -69 18z"/>
<path d="M2950 8260 c-12 -7 -12 -12 -3 -21 10 -10 14 -9 19 5 8 22 2 27 -16
16z"/>
<path d="M3030 8260 c0 -5 4 -10 9 -10 6 0 13 5 16 10 3 6 -1 10 -9 10 -9 0
-16 -4 -16 -10z"/>
<path d="M4424 8236 c-18 -8 -35 -19 -38 -25 -4 -5 -13 -8 -20 -5 -8 3 -17 -3
-20 -14 -11 -34 -50 -58 -126 -77 -41 -10 -105 -29 -141 -42 -81 -28 -79 -28
-79 1 0 24 -16 43 -27 32 -3 -3 -7 -20 -9 -37 -5 -39 -12 -48 -23 -30 -5 7
-17 11 -27 9 -14 -3 -18 -11 -17 -33 2 -23 -3 -33 -22 -41 -19 -9 -25 -9 -30
4 -5 13 -7 13 -23 -1 -11 -10 -27 -14 -40 -10 -25 6 -77 -29 -126 -85 -36 -41
-79 -41 -104 0 -15 26 -15 29 7 58 48 66 11 46 -91 -50 l-107 -100 -43 23
c-24 13 -79 43 -123 67 -44 24 -99 54 -121 67 -44 25 -54 22 -68 -24 -8 -24
-23 -14 208 -142 71 -39 132 -71 136 -71 3 0 15 17 26 38 35 66 79 121 97 122
21 0 54 -16 79 -37 16 -14 15 -17 -12 -45 -64 -64 -98 -117 -126 -195 -19 -55
-35 -85 -49 -91 -11 -5 -21 -18 -22 -28 -1 -11 -20 -89 -42 -174 -71 -274 -93
-411 -96 -620 -2 -102 -4 -186 -4 -188 -1 -2 -16 6 -35 17 -18 12 -37 21 -41
21 -7 0 -1 -73 12 -147 7 -45 33 -44 33 1 0 45 13 52 52 29 30 -17 32 -22 29
-69 -2 -44 23 -121 65 -194 1 -3 -1 -12 -5 -19 -6 -9 -17 -7 -47 11 l-38 23
24 -40 c45 -75 52 -85 61 -85 5 0 9 8 9 18 0 33 20 43 52 24 26 -15 33 -29 29
-59 -3 -20 19 -54 61 -98 21 -22 38 -47 38 -56 0 -9 9 -24 21 -35 17 -15 23
-16 40 -6 28 18 54 7 78 -33 17 -29 31 -37 92 -56 55 -17 80 -20 107 -13 47
12 63 38 37 58 -20 15 -20 15 3 16 12 0 22 -6 22 -13 0 -22 66 -50 102 -44 94
15 240 110 250 162 2 12 15 23 33 29 17 4 46 15 67 23 l36 15 69 -57 c37 -32
118 -106 179 -165 62 -60 166 -154 232 -209 66 -56 122 -105 124 -109 1 -5 30
-23 63 -42 33 -18 67 -39 75 -46 44 -37 246 -127 378 -168 102 -32 218 -46
386 -46 71 0 127 -2 125 -5 -3 -2 -72 -16 -154 -30 -145 -25 -294 -47 -1025
-155 -190 -28 -397 -60 -460 -70 -199 -34 -797 -118 -985 -139 -288 -32 -567
-44 -898 -38 -395 7 -722 45 -977 113 -52 14 -122 32 -155 40 -122 30 -424
136 -580 204 -125 55 -542 265 -653 329 -67 39 -125 71 -127 71 -3 0 -5 -69
-5 -154 l0 -153 53 -28 c786 -416 1367 -605 2052 -670 94 -9 205 -20 248 -25
90 -11 455 0 843 27 200 13 263 14 309 5 93 -19 128 -69 63 -89 l-33 -9 57
-18 c62 -20 77 -16 99 26 8 16 4 25 -25 52 -20 18 -36 37 -36 43 0 18 58 33
124 33 64 0 90 4 302 44 173 33 668 109 919 141 110 14 217 28 238 32 20 3 37
3 37 1 0 -3 -21 -19 -47 -36 -75 -49 -195 -170 -207 -209 -4 -12 -13 -27 -22
-33 -11 -10 -12 -16 -3 -26 9 -11 8 -14 -5 -14 -9 0 -16 -4 -16 -9 0 -5 19 -7
43 -5 23 3 47 6 54 6 7 1 14 7 17 15 3 7 16 18 28 23 36 15 61 33 91 63 15 15
44 36 64 47 20 10 39 23 42 27 9 13 59 43 71 43 6 0 29 12 53 27 30 20 55 27
89 28 38 0 51 5 73 29 27 29 28 29 42 10 13 -18 15 -18 27 -1 7 9 21 17 31 17
15 0 16 -2 4 -16 -12 -15 -11 -16 11 -9 14 4 27 10 30 14 3 3 25 6 50 7 103 1
300 18 293 24 -13 11 -154 48 -213 56 -55 7 -55 7 -25 19 17 7 149 33 295 59
146 25 337 60 425 76 174 33 197 35 241 21 73 -23 275 -63 444 -87 167 -24
222 -37 338 -84 12 -5 22 -13 21 -17 0 -5 -45 -29 -99 -56 -68 -33 -116 -64
-156 -102 -31 -30 -50 -55 -43 -55 11 0 11 -2 -1 -11 -11 -8 -5 -9 25 -4 95
15 225 17 242 4 12 -10 14 -10 9 -1 -4 6 -2 12 3 12 6 0 11 -4 11 -10 0 -5 7
-7 15 -4 9 4 15 0 15 -7 0 -11 3 -11 10 1 7 12 10 12 10 1 0 -7 6 -11 15 -7 9
3 15 0 15 -10 0 -8 5 -12 10 -9 6 3 10 0 10 -7 1 -8 7 -5 17 7 15 20 15 19 10
-5 -6 -24 -5 -24 8 -6 14 19 15 19 15 1 0 -18 1 -18 15 1 13 18 14 18 15 1 0
-10 4 -16 9 -13 5 4 12 0 14 -6 4 -10 6 -9 6 1 1 11 4 11 16 1 12 -10 15 -9
16 6 0 11 3 14 6 7 8 -20 53 -16 53 5 1 11 6 6 15 -13 7 -16 14 -24 14 -17 1
6 13 12 28 12 15 0 65 24 117 58 50 32 107 64 126 71 19 7 45 18 57 24 16 7
33 7 58 0 19 -6 33 -7 29 -2 -3 5 2 9 11 9 11 0 15 -5 12 -14 -8 -21 47 -31
86 -15 18 7 58 28 90 47 38 22 66 33 83 29 13 -2 24 1 25 7 0 6 4 2 8 -9 6
-15 11 -8 21 35 14 63 26 81 45 74 7 -3 16 -1 20 5 3 6 1 11 -4 11 -6 0 -11 6
-11 14 0 19 56 28 105 16 80 -19 354 -1 397 26 7 5 21 7 32 5 10 -1 15 2 12 7
-3 6 2 13 11 15 21 5 -40 -3 -77 -10 -14 -2 -81 -5 -150 -6 -101 -2 -132 2
-160 15 l-35 18 45 -8 c66 -10 227 -4 285 12 l50 14 -63 -3 c-121 -8 -210 24
-196 68 4 13 2 17 -5 13 -6 -4 -11 -1 -11 8 0 19 -57 66 -81 66 -11 0 -22 7
-25 15 -4 8 -12 15 -19 15 -7 0 -27 16 -45 36 -17 20 -36 37 -43 38 -29 5 -63
20 -72 32 -5 7 -19 14 -30 16 -11 2 -20 10 -20 18 0 15 -28 49 -42 51 -5 1
-17 6 -28 12 -11 6 -32 11 -47 10 -16 0 -29 6 -33 16 -5 13 -7 14 -16 1 -8
-13 -10 -13 -18 0 -8 12 -11 11 -18 -7 -8 -21 -8 -21 -31 -2 -14 11 -22 26
-19 36 4 15 6 15 12 -4 4 -13 13 -23 20 -23 18 0 28 34 20 61 -5 16 -4 20 6
15 8 -4 6 -1 -4 7 -17 14 -16 15 4 20 11 3 18 10 15 15 -3 6 0 13 6 16 9 3 8
8 -5 16 -9 6 -15 15 -12 20 3 4 -2 10 -10 14 -8 3 -15 13 -15 22 0 12 -6 15
-25 10 -23 -6 -25 -3 -31 34 -4 24 -12 40 -20 40 -15 0 -44 50 -44 75 0 8 5
15 11 15 6 0 9 6 6 14 -3 8 8 23 25 36 38 28 30 36 -13 13 -20 -12 -37 -32
-44 -53 -11 -32 -45 -55 -45 -31 0 6 7 11 15 11 8 0 15 9 15 19 0 28 -20 37
-21 9 0 -13 -3 -18 -5 -12 -4 10 -1 29 21 114 l6 25 -23 -27 c-13 -16 -30 -28
-38 -29 -12 0 -12 -2 1 -7 11 -5 13 -14 8 -32 -6 -20 -7 -21 -8 -5 -1 17 -3
18 -11 5 -9 -13 -12 -12 -25 4 -12 17 -17 17 -31 5 -16 -13 -17 -12 -1 12 10
14 14 29 10 33 -4 4 3 9 15 12 12 4 24 14 27 24 6 20 59 63 80 66 15 2 115 64
115 72 0 2 -20 -8 -44 -22 -25 -14 -53 -26 -64 -26 -10 0 -38 -14 -60 -30 -23
-17 -42 -27 -42 -24 0 4 -10 -5 -21 -20 -20 -26 -22 -26 -41 -10 -18 17 -19
17 -13 -2 6 -18 6 -18 -8 -2 -10 13 -16 15 -25 6 -9 -9 -15 -9 -23 -1 -7 7 12
28 68 69 87 66 122 90 167 117 17 10 38 26 46 34 10 11 3 9 -20 -4 -19 -11
-62 -35 -95 -53 -33 -17 -67 -38 -75 -45 -10 -9 -21 -11 -31 -5 -12 7 -19 3
-29 -15 -7 -14 -20 -25 -28 -25 -12 0 -12 4 3 20 18 20 18 20 -13 9 -30 -10
-44 -29 -22 -29 6 0 10 -5 10 -11 0 -6 -8 -9 -17 -7 -10 2 -17 10 -16 16 2 7
-5 12 -15 13 -13 0 -14 2 -2 6 8 4 21 12 29 20 7 8 20 12 28 9 8 -3 12 -2 9 2
-3 5 21 23 52 42 52 30 162 109 187 133 11 10 -64 -31 -128 -70 -21 -13 -42
-21 -47 -18 -6 4 -10 2 -10 -3 0 -5 -14 -9 -32 -10 -23 -1 -28 2 -18 8 11 7 7
10 -15 10 -23 0 -27 3 -15 10 9 6 11 10 3 10 -7 0 -10 6 -7 14 4 10 -2 12 -23
9 -24 -4 -25 -3 -10 7 9 6 26 8 37 5 10 -3 33 1 50 10 16 8 30 14 30 11 0 -11
79 19 117 45 23 16 50 29 61 29 11 0 36 -20 58 -47 41 -52 177 -186 264 -261
30 -26 86 -77 125 -114 38 -37 106 -88 150 -114 76 -45 274 -173 285 -184 3
-3 37 -31 75 -62 39 -31 81 -68 94 -82 24 -26 64 -34 89 -18 9 6 -6 24 -49 63
-33 30 -67 60 -75 68 -8 7 -17 11 -21 8 -9 -10 -84 66 -79 80 3 7 -1 13 -8 13
-7 0 -19 7 -26 15 -10 12 -15 13 -21 4 -8 -14 -59 61 -59 86 0 9 -4 14 -9 10
-14 -8 -25 35 -12 48 6 6 11 17 11 25 0 8 -13 3 -37 -15 -27 -20 -34 -22 -23
-8 8 11 20 23 25 28 6 4 5 11 -5 16 -15 11 -14 13 11 27 22 12 6 59 -16 50
-12 -4 -13 -2 -6 12 5 9 11 37 13 62 2 36 0 45 -12 43 -12 -2 -15 6 -12 37 4
38 3 40 -23 40 -24 0 -25 1 -10 16 9 9 13 24 10 34 -4 12 0 20 12 24 10 3 -11
3 -47 1 -57 -3 -61 -3 -30 6 40 12 72 37 64 50 -3 5 7 9 23 10 27 0 27 1 6 9
-13 5 -23 17 -24 27 0 10 -3 13 -5 7 -2 -6 -19 -9 -37 -7 -26 3 -28 1 -12 -6
33 -16 0 -12 -36 4 -33 14 -33 14 -7 15 58 0 128 50 128 91 0 10 5 21 11 25 8
4 7 9 -2 15 -12 8 -11 11 1 19 11 7 12 12 3 21 -6 6 -9 18 -6 25 3 8 -2 17
-11 20 -13 5 -14 9 -5 20 16 20 5 28 -19 15 -34 -18 -47 -13 -24 9 12 11 26
20 32 20 5 0 10 5 10 11 0 6 -7 9 -15 5 -22 -8 -18 17 5 32 16 10 20 10 21 0
0 -7 5 -2 10 11 6 16 6 27 0 30 -6 4 -6 12 -1 21 6 8 10 18 10 23 0 9 -34 9
-44 0 -4 -4 -25 -6 -48 -4 -29 2 -38 -1 -33 -9 4 -7 1 -16 -6 -21 -26 -17
-189 10 -189 31 0 5 25 12 55 15 34 5 72 18 100 36 25 16 51 29 58 29 7 0 21
8 32 16 19 15 19 15 -10 8 -33 -7 -104 -36 -148 -59 -32 -17 -92 -20 -82 -5 4
7 -3 7 -20 0 -34 -13 -55 -12 -32 1 24 14 21 28 -4 22 -12 -4 -25 0 -30 8 -6
10 -9 10 -9 2 0 -19 -18 -16 -23 5 -3 11 -5 9 -6 -8 -1 -19 -7 -26 -25 -28
-19 -1 -25 5 -31 31 l-8 32 -7 -35 c-4 -19 -8 -28 -9 -20 -1 13 -2 13 -11 0
-8 -12 -10 -12 -10 5 -1 20 -1 20 -15 1 -14 -18 -15 -15 -16 35 l-1 54 -12
-45 c-11 -42 -13 -43 -21 -20 -21 64 -23 67 -24 41 -1 -20 -3 -21 -16 -11 -12
10 -15 10 -15 -1 0 -8 -6 -3 -13 11 -7 14 -19 25 -26 25 -8 0 -17 9 -22 20 -4
11 -8 16 -8 11 -1 -5 -8 -3 -16 4 -8 7 -15 9 -15 4 0 -5 -5 -2 -10 6 -9 13
-10 13 -10 0 -1 -8 -12 7 -26 33 -25 48 -26 49 -46 30 -12 -10 -18 -13 -15 -6
8 13 -18 43 -36 42 -9 0 -8 -2 1 -6 14 -5 17 -33 3 -33 -6 0 -13 5 -16 11 -4
6 -14 8 -22 4 -13 -4 -14 -3 -3 10 11 13 10 14 -3 9 -10 -3 -22 4 -33 20 -15
24 -18 25 -29 10 -11 -16 -12 -16 -18 0 -5 13 -16 16 -47 13 -44 -4 -53 8 -17
23 20 8 20 9 2 8 -11 0 -31 -3 -45 -7 -17 -6 -31 -3 -44 8 -11 9 -16 10 -12 3
6 -10 1 -11 -21 -6 -15 4 -37 11 -48 17 -17 9 -18 8 -8 -4 7 -8 10 -25 6 -37
-4 -17 -10 -21 -29 -16 -27 7 -57 -12 -50 -32 3 -8 0 -11 -10 -7 -16 6 -19 33
-4 33 6 0 10 6 10 14 0 8 4 16 8 18 4 2 18 18 31 36 27 39 10 43 -24 6 -14
-15 -25 -24 -25 -20 0 16 31 64 44 69 21 8 9 37 -15 37 -27 0 -24 -20 4 -21
16 -1 17 -3 5 -6 -9 -2 -20 -13 -23 -24 -4 -11 -11 -16 -17 -13 -6 4 -6 10 0
16 10 10 5 48 -7 48 -4 0 -12 -5 -19 -12 -9 -9 -12 -8 -12 5 0 9 7 17 16 17
10 0 14 6 11 14 -3 8 1 20 10 28 15 12 16 10 10 -17 -6 -26 -6 -28 5 -10 6 11
19 25 27 32 14 10 13 11 -6 6 -14 -3 -23 -1 -23 6 0 6 6 11 14 11 7 0 19 7 26
15 17 21 3 19 -36 -6 -28 -17 -34 -18 -34 -5 0 8 5 18 10 21 13 8 13 25 0 25
-6 0 -15 -12 -20 -26 -6 -14 -18 -33 -27 -42 -15 -16 -16 -15 -11 8 3 14 9 34
13 45 7 16 3 14 -17 -7 -14 -15 -28 -33 -31 -40 -3 -8 -6 -6 -6 5 -1 10 3 26
8 36 5 9 6 23 2 30 -5 8 -12 -3 -20 -33 -6 -24 -16 -48 -22 -52 -8 -4 -9 0 -4
15 8 25 2 27 -20 5 -13 -14 -15 -29 -10 -83 6 -61 5 -64 -9 -47 -20 25 -20 17
4 -74 20 -73 22 -75 123 -173 56 -54 158 -147 226 -205 68 -59 152 -134 186
-167 34 -33 79 -71 100 -85 50 -33 125 -104 125 -119 0 -7 -4 -10 -9 -7 -5 4
-11 3 -13 -1 -6 -15 -102 -55 -106 -44 -5 14 -32 2 -32 -15 0 -24 -69 -23 -83
1 -4 8 -17 15 -29 15 -18 0 -19 -2 -7 -17 13 -15 12 -15 -8 -3 -16 10 -19 18
-12 27 13 15 109 44 122 36 6 -3 7 -1 3 5 -4 6 6 19 21 29 15 10 35 24 43 32
13 13 11 13 -13 7 -18 -4 -35 -1 -50 9 -12 8 -17 15 -12 16 6 0 -1 5 -14 10
-18 7 -28 5 -42 -7 -11 -10 -28 -15 -43 -12 -14 3 -23 1 -20 -3 3 -5 16 -9 30
-9 14 0 23 -4 20 -9 -3 -4 6 -13 21 -20 35 -16 18 -31 -40 -35 -25 -1 -53 -8
-61 -15 -9 -8 -16 -10 -16 -5 0 5 -4 3 -9 -4 -7 -11 -11 -11 -24 2 -8 9 -21
16 -27 16 -6 0 -8 5 -5 10 3 6 1 10 -6 10 -8 0 -8 4 1 15 7 8 17 12 23 8 6 -4
7 -1 2 6 -8 13 9 28 82 72 24 14 41 28 37 31 -9 10 -68 -14 -82 -33 -17 -24
-76 -53 -80 -39 -7 20 -30 11 -25 -10 6 -24 -9 -26 -31 -5 -19 20 -30 19 -22
-1 3 -9 1 -14 -5 -12 -6 2 -10 7 -10 11 1 4 1 14 1 22 0 8 4 15 9 15 5 0 35
26 68 57 61 61 51 56 -34 -14 -28 -24 -54 -43 -57 -43 -16 0 -3 36 25 72 41
51 32 59 -15 14 -20 -20 -36 -33 -36 -30 0 4 -7 1 -15 -6 -8 -7 -12 -17 -8
-24 3 -6 -3 -2 -15 8 -22 19 -30 32 -13 22 4 -3 13 6 20 20 17 38 13 41 -14
11 -32 -34 -43 -35 -21 -2 9 14 12 25 7 25 -5 0 -13 -4 -16 -10 -9 -15 -25
-12 -25 4 0 7 10 21 23 30 19 15 20 16 2 10 -59 -19 -59 -20 -52 19 3 21 2 37
-4 37 -5 0 -9 -4 -9 -10 0 -5 -7 -10 -15 -10 -8 0 -15 -6 -15 -13 0 -7 -9 -20
-20 -30 -19 -16 -20 -16 -20 17 0 18 -3 48 -6 65 -5 23 -3 31 6 29 7 -2 14 2
17 9 3 7 -4 11 -17 10 -20 -1 -21 -5 -15 -54 4 -30 2 -53 -3 -53 -12 0 -32 46
-33 78 0 22 -2 23 -8 9 -6 -17 -8 -17 -20 -3 -7 9 -22 16 -32 16 -12 0 -19 9
-21 28 -3 17 -7 5 -13 -38 -5 -36 -11 -55 -13 -42 -2 12 -8 20 -13 17 -5 -4
-9 1 -9 9 0 9 3 16 8 16 4 0 8 12 9 27 1 24 0 25 -9 9 -10 -18 -11 -18 -24 5
l-13 24 -1 -30 c-1 -16 -4 -24 -7 -17 -2 6 -9 12 -15 12 -18 0 -38 28 -38 53
0 14 -5 27 -11 29 -6 2 -13 23 -15 47 -4 46 -14 70 -14 33 0 -12 -4 -22 -10
-22 -5 0 -10 -5 -10 -11 0 -5 5 -7 10 -4 17 10 11 -17 -6 -30 -14 -10 -14 -15
-4 -34 6 -13 10 -25 7 -27 -6 -6 -24 44 -32 87 -4 27 -11 38 -28 43 -14 3 -23
14 -24 27 -1 15 2 19 13 15 9 -3 18 -6 21 -6 3 0 0 -7 -7 -15 -10 -12 -10 -15
4 -15 9 0 16 8 16 20 0 11 4 20 9 20 5 0 7 9 4 20 -3 11 -10 20 -15 20 -6 0
-8 -9 -5 -20 3 -13 0 -20 -9 -20 -8 0 -13 3 -13 8 3 19 -2 25 -11 12 -6 -10
-10 -11 -10 -2 0 6 -7 12 -16 12 -8 0 -12 -5 -9 -10 3 -6 4 -19 0 -30 -8 -26
-35 -14 -35 17 0 16 4 22 12 17 8 -5 9 -2 5 10 -4 10 -7 25 -7 33 0 9 -3 13
-7 10 -3 -4 -12 -2 -20 4 -10 9 -13 8 -13 -4 0 -10 -6 -13 -20 -10 -12 3 -20
0 -20 -6 0 -7 6 -11 13 -10 27 3 33 -2 33 -35 0 -21 -6 -38 -17 -44 -14 -9
-19 -6 -29 19 -8 19 -18 28 -26 25 -9 -3 -14 2 -14 13 0 11 6 21 13 24 6 2 8
8 4 13 -4 4 -17 3 -27 -4 -16 -10 -21 -9 -31 9 -8 16 -8 24 2 33 9 8 10 8 6 0
-4 -7 0 -15 9 -18 23 -9 34 -7 34 4 0 6 -7 10 -15 10 -20 0 -19 26 1 34 13 5
10 11 -14 31 -32 27 -52 31 -68 15 -11 -11 -11 32 1 65 7 17 5 17 -9 -2 -20
-26 -36 -30 -36 -8 0 8 -5 15 -11 15 -5 0 -8 4 -5 9 3 5 -2 11 -12 14 -9 2
-25 8 -34 12 -11 4 -18 3 -18 -3 0 -6 6 -12 13 -15 6 -2 -1 -2 -18 0 -28 3
-28 3 -10 -9 11 -7 21 -22 23 -32 4 -19 3 -19 -22 -2 -19 12 -26 13 -27 4 0
-7 -5 -2 -10 12 -7 17 -7 26 0 28 6 2 11 12 11 23 0 10 5 19 10 19 6 0 10 7
10 16 0 12 -6 15 -25 10 -19 -5 -23 -3 -19 9 5 13 3 13 -22 0 -26 -13 -29 -13
-36 3 -5 13 -7 14 -8 2 -1 -10 -4 -9 -9 5 -5 11 -6 34 -4 51 4 25 9 31 24 27
11 -3 19 0 19 7 0 6 -9 14 -20 17 -24 6 -24 12 -5 37 15 19 15 19 28 1 10 -12
16 -14 21 -7 16 26 50 9 122 -63 61 -61 79 -73 90 -64 16 13 19 75 3 84 -6 4
-13 4 -17 0 -4 -4 -1 -10 6 -12 13 -5 17 -63 3 -63 -9 0 -42 32 -86 84 -16 20
-36 36 -42 36 -7 0 -13 6 -13 13 0 7 -9 18 -20 24 -16 11 -18 10 -13 -3 4 -12
0 -15 -18 -12 -18 2 -23 9 -22 26 2 14 -3 22 -12 22 -8 0 -15 -6 -15 -14 0
-15 -46 -11 -56 5 -9 15 -22 10 -46 -15 -17 -19 -30 -23 -51 -19 -19 4 -26 10
-23 19 3 8 1 14 -4 14 -6 0 -10 -5 -10 -11 0 -6 -7 -8 -16 -5 -12 4 -15 2 -10
-9 3 -8 1 -15 -5 -15 -6 0 -13 9 -16 20 -5 18 -7 18 -29 4 -13 -9 -28 -13 -34
-9 -5 3 -10 1 -10 -4 0 -14 16 -14 41 -1 17 9 19 7 19 -17 0 -19 3 -24 9 -15
6 11 9 9 14 -7 5 -22 0 -31 -20 -31 -7 0 -13 11 -13 25 0 14 -4 25 -10 25 -5
0 -10 -4 -10 -10 0 -5 -12 -10 -26 -10 -19 0 -25 4 -21 14 4 10 1 13 -8 10 -8
-3 -15 -15 -17 -27 -2 -16 -10 -22 -29 -22 -17 0 -26 -5 -25 -14 1 -9 -4 -16
-11 -16 -6 0 -15 -3 -19 -7 -13 -14 -36 -9 -31 7 9 21 -11 29 -29 11 -8 -9
-22 -16 -30 -16 -8 0 -14 -5 -14 -12 0 -9 -3 -9 -12 0 -18 18 -25 15 -24 -9 1
-12 -5 -24 -13 -27 -10 -3 -12 0 -8 12 4 9 2 16 -3 16 -6 0 -10 -7 -10 -16 0
-11 -6 -14 -20 -9 -18 6 -20 3 -14 -21 5 -18 3 -25 -4 -20 -6 3 -13 2 -17 -4
-10 -16 -25 -2 -19 18 4 12 3 14 -3 4 -6 -7 -14 -12 -19 -11 -22 4 -35 -2 -28
-12 5 -8 -1 -10 -18 -7 -13 2 -30 -2 -37 -10 -11 -12 -15 -12 -22 0 -12 19
-11 1 1 -23 10 -17 8 -18 -15 -9 -20 7 -25 6 -25 -5 0 -8 -9 -15 -20 -15 -18
0 -25 -11 -21 -33 1 -5 -4 -7 -11 -5 -8 3 -12 16 -10 31 2 15 -1 27 -7 27 -6
0 -10 -6 -9 -12 2 -7 -5 -12 -14 -12 -10 1 -18 -4 -18 -12 0 -15 -16 -19 -24
-6 -7 12 -76 14 -76 3 0 -5 9 -7 20 -4 21 5 28 -11 10 -22 -6 -4 -7 -11 -4
-17 4 -6 -3 -5 -16 2 -12 6 -24 9 -28 6 -3 -3 -1 -6 5 -6 6 0 13 -7 17 -15 4
-13 2 -13 -14 -5 -24 13 -30 13 -30 -1 0 -5 5 -7 10 -4 6 3 10 2 10 -3 0 -6
-7 -12 -15 -16 -9 -3 -15 0 -15 8 0 7 -7 19 -15 26 -10 9 -15 9 -15 1 0 -6 4
-11 9 -11 5 0 9 -11 9 -25 0 -21 -3 -23 -15 -13 -11 9 -16 9 -24 -3 -6 -10 -9
-11 -9 -1 0 7 -4 11 -9 8 -5 -3 -11 1 -15 9 -7 19 -26 20 -26 1 0 -8 -5 -18
-11 -22 -8 -5 -10 3 -7 24 3 22 1 29 -9 25 -7 -3 -13 -13 -13 -23 0 -11 -4
-22 -10 -25 -5 -3 -10 -18 -11 -33 l-1 -27 -8 25 c-5 17 -8 19 -9 8 -1 -20
-12 -23 -28 -7 -8 8 -13 8 -17 0 -4 -6 -12 -11 -17 -11 -6 0 -7 5 -4 10 3 6 1
10 -4 10 -6 0 -11 -7 -11 -15 0 -9 -8 -14 -22 -12 -15 1 -26 -5 -33 -20 -10
-25 -28 -32 -19 -9 3 8 1 17 -5 21 -6 3 -11 -1 -11 -9 0 -9 -9 -16 -20 -16
-11 0 -20 -7 -20 -16 0 -8 -4 -13 -9 -10 -5 3 -8 14 -6 24 1 9 0 11 -2 5 -3
-7 -9 -13 -14 -13 -6 0 -7 -5 -3 -12 7 -11 -10 -9 -48 7 -14 6 -18 2 -18 -15
0 -13 -5 -20 -12 -17 -8 2 -12 15 -10 31 2 15 -2 34 -9 42 -10 13 -10 17 2 25
11 7 9 9 -7 9 -14 0 -24 -8 -28 -22 -6 -21 -7 -21 -17 -5 -11 18 -49 24 -49 6
0 -5 -5 -7 -10 -4 -15 9 -2 25 21 25 18 0 16 5 -15 35 -20 19 -36 41 -36 48 0
14 -31 47 -44 47 -4 0 -12 -14 -18 -31 l-11 -31 -25 53 c-21 44 -27 50 -33 33
-4 -10 -5 -29 -2 -41 3 -15 0 -23 -8 -24 -8 0 -5 -4 6 -9 19 -8 19 -9 -2 -9
-13 -1 -23 -5 -23 -11 0 -5 -6 -10 -14 -10 -23 0 -37 -24 -23 -40 9 -10 9 -11
-1 -6 -7 4 -20 2 -29 -6 -14 -11 -15 -10 -9 12 14 46 15 65 4 38 -7 -16 -15
-28 -20 -28 -4 0 -8 -6 -8 -14 0 -8 -7 -17 -16 -20 -24 -9 -29 -7 -16 6 17 17
15 31 -3 24 -8 -3 -15 -1 -15 4 0 5 10 10 22 12 13 2 24 11 27 23 3 17 1 18
-13 6 -19 -16 -20 -11 -4 24 10 22 9 28 -3 35 -12 8 -12 13 -1 30 8 13 10 34
7 54 -5 26 -11 32 -28 31 -17 -2 -22 -8 -20 -29 2 -28 -6 -33 -25 -14 -9 9
-12 9 -12 0 0 -7 -4 -12 -10 -12 -5 0 -10 7 -10 15 0 8 7 15 16 15 10 0 14 7
12 20 -5 34 -20 27 -34 -15 -8 -22 -12 -30 -10 -17 3 15 -1 22 -12 22 -15 1
-15 2 1 14 9 7 17 18 17 25 0 6 5 11 11 11 7 0 6 8 -3 23 -16 26 -13 57 7 57
21 0 33 31 28 68 -4 23 -11 32 -24 32 -10 0 -21 -5 -24 -10 -4 -6 -1 -9 6 -8
15 4 21 -13 10 -31 -13 -20 -28 -6 -35 35 -8 38 -29 42 -34 6 -2 -12 -9 -22
-17 -22 -7 0 -15 -6 -18 -12 -2 -7 -8 -10 -12 -6 -5 4 0 25 10 47 23 51 14 77
-11 34 -20 -35 -34 -42 -34 -18 0 18 -30 55 -46 55 -6 0 -17 7 -24 15 -15 18
1 20 18 3 9 -9 12 -9 12 0 0 7 1 15 3 18 1 4 -10 8 -25 10 -22 2 -29 -2 -34
-22 -3 -13 -10 -24 -15 -24 -6 0 -5 9 1 21 17 32 7 42 -19 20 -32 -28 -37 -26
-16 5 21 33 11 44 -13 14 -19 -23 -42 -21 -42 4 0 7 -9 21 -20 31 -16 14 -20
15 -24 4 -13 -41 -14 -43 -15 -22 -1 12 -5 25 -11 28 -5 3 -10 17 -10 30 0 14
-9 29 -20 35 -11 6 -20 17 -20 24 0 20 -27 27 -34 9 -4 -9 -9 -13 -12 -10 -3
3 2 16 11 30 10 16 12 28 6 31 -5 4 -14 -1 -19 -10 -10 -18 -69 -27 -78 -12
-3 4 3 8 13 8 10 0 24 4 32 9 11 7 10 14 -8 40 -13 17 -20 37 -18 44 3 6 6 3
6 -8 1 -17 3 -17 11 -5 5 8 10 26 10 38 0 15 7 26 19 29 12 3 17 11 14 23 -4
14 2 21 21 26 14 3 26 11 26 16 0 17 44 47 61 42 9 -2 22 2 29 11 6 8 27 17
46 21 19 3 34 9 34 13 0 4 17 13 38 20 49 16 68 24 126 51 41 19 72 24 170 28
138 5 243 -11 349 -52 37 -14 67 -21 67 -16 0 6 -4 10 -10 10 -5 0 -10 5 -10
10 0 13 -34 48 -77 78 -31 22 -48 28 -40 15 3 -5 -8 -9 -24 -10 -15 -1 -31 2
-34 8 -4 5 -10 7 -15 4 -4 -3 -6 5 -4 17 2 13 2 18 -2 11 -3 -8 -11 -9 -22 -3
-43 22 -96 41 -152 55 -8 2 -29 -2 -46 -9z m-584 -272 c0 -9 -32 -33 -44 -34
-5 0 -1 9 9 20 18 20 35 26 35 14z m-332 -373 c10 -6 5 -11 -19 -20 -36 -12
-44 -9 -36 14 7 16 34 20 55 6z m3039 -220 c1 -1 -14 -19 -34 -41 -20 -22 -39
-37 -42 -34 -3 3 1 9 8 14 8 4 11 15 8 24 -5 12 -1 16 15 16 17 0 18 2 8 15
-11 13 -9 15 11 11 13 -3 25 -5 26 -5z m-129 -36 c-3 -3 -9 2 -12 12 -6 14 -5
15 5 6 7 -7 10 -15 7 -18z m-2062 -62 c-10 -10 -19 5 -10 18 6 11 8 11 12 0 2
-7 1 -15 -2 -18z m2160 -9 c-3 -9 -7 -30 -7 -47 -1 -25 -3 -27 -6 -9 -3 15
-10 22 -19 18 -16 -6 -17 -4 -8 18 3 9 10 13 15 10 5 -3 9 2 9 10 0 9 5 16 11
16 6 0 8 -7 5 -16z m-406 -24 c9 -18 8 -19 -12 -11 -13 4 -29 6 -35 4 -7 -3
-13 -1 -13 5 0 28 45 30 60 2z m-1820 6 c0 -3 -4 -8 -10 -11 -5 -3 -10 -1 -10
4 0 6 5 11 10 11 6 0 10 -2 10 -4z m1750 -34 c0 -4 -9 -8 -19 -8 -15 0 -17 3
-9 13 10 12 28 9 28 -5z m-2637 -18 c8 -8 -3 -34 -14 -34 -5 0 -9 9 -9 20 0
19 11 26 23 14z m4235 -14 c-13 -20 -28 -27 -28 -12 0 10 22 32 32 32 5 0 3
-9 -4 -20z m-81 -12 c-3 -8 -6 -5 -6 6 -1 11 2 17 5 13 3 -3 4 -12 1 -19z
m-28 5 c0 -5 -4 -17 -9 -28 -8 -18 -9 -17 -9 8 -1 15 4 27 9 27 6 0 10 -3 9
-7z m-919 -22 c0 -5 -10 -11 -23 -13 -15 -3 -24 0 -24 9 0 7 11 13 24 13 13 0
23 -4 23 -9z m-3222 -78 c-13 -47 -38 -70 -38 -36 0 11 7 41 16 68 13 38 19
44 26 31 6 -10 4 -33 -4 -63z m2442 67 c0 -5 -4 -10 -10 -10 -5 0 -10 5 -10
10 0 6 5 10 10 10 6 0 10 -4 10 -10z m1710 -28 c-6 -2 -10 -13 -10 -24 0 -12
-3 -19 -6 -15 -3 3 -3 20 1 38 5 23 10 28 16 18 5 -8 4 -15 -1 -17z m-790 -43
c0 -6 -4 -7 -10 -4 -5 3 -10 11 -10 16 0 6 5 7 10 4 6 -3 10 -11 10 -16z
m-1990 -22 c0 -8 -9 -24 -20 -37 -24 -28 -26 -20 -5 20 17 32 25 38 25 17z
m1947 -19 c-3 -8 -6 -5 -6 6 -1 11 2 17 5 13 3 -3 4 -12 1 -19z m-2257 2 c0
-5 -5 -10 -11 -10 -5 0 -7 5 -4 10 3 6 8 10 11 10 2 0 4 -4 4 -10z m2320 -6
c0 -8 -5 -12 -10 -9 -6 4 -8 11 -5 16 9 14 15 11 15 -7z m-1994 -26 c-11 -15
-16 -18 -16 -7 0 16 21 42 28 34 2 -2 -3 -14 -12 -27z m2070 7 c3 -8 -1 -24
-10 -37 -13 -18 -16 -19 -16 -5 0 9 -6 17 -12 18 -7 0 -4 4 7 9 11 5 14 9 8 9
-19 1 -16 21 2 21 9 0 18 -7 21 -15z m824 0 c0 -8 -7 -15 -16 -15 -14 0 -14 3
-4 15 7 8 14 15 16 15 2 0 4 -7 4 -15z m-915 -15 c-3 -5 -10 -10 -16 -10 -5 0
-9 5 -9 10 0 6 7 10 16 10 8 0 12 -4 9 -10z m-2155 -50 c0 -5 -7 -10 -15 -10
-8 0 -15 5 -15 10 0 6 7 10 15 10 8 0 15 -4 15 -10z m570 -24 c0 -3 -4 -8 -10
-11 -5 -3 -10 -1 -10 4 0 6 5 11 10 11 6 0 10 -2 10 -4z m1655 -6 c3 -5 1 -10
-4 -10 -6 0 -11 5 -11 10 0 6 2 10 4 10 3 0 8 -4 11 -10z m50 -40 c-3 -5 2
-24 11 -42 l17 -33 -28 27 c-23 23 -25 30 -15 43 14 17 25 20 15 5z m-1995
-10 c0 -5 -2 -10 -4 -10 -3 0 -8 5 -11 10 -3 6 -1 10 4 10 6 0 11 -4 11 -10z
m2105 -69 c3 -5 1 -12 -5 -16 -5 -3 -10 1 -10 9 0 18 6 21 15 7z m45 -16 c0
-8 -2 -15 -4 -15 -2 0 -6 7 -10 15 -3 8 -1 15 4 15 6 0 10 -7 10 -15z m64 -1
c3 -9 6 -23 6 -32 -1 -12 -5 -10 -15 8 -8 14 -14 28 -15 33 0 13 18 7 24 -9z
m-32 -41 c3 -16 8 -37 12 -48 3 -11 -3 -2 -14 20 -21 42 -26 70 -11 61 5 -3
11 -18 13 -33z m118 -28 c6 -8 9 -19 5 -25 -7 -11 -34 15 -35 33 0 12 17 8 30
-8z m-67 -15 c3 -11 1 -20 -4 -20 -5 0 -9 9 -9 20 0 11 2 20 4 20 2 0 6 -9 9
-20z m77 -47 c0 -5 -5 -15 -10 -23 -8 -12 -10 -11 -10 8 0 12 5 22 10 22 6 0
10 -3 10 -7z m46 -22 c-4 -5 -1 -12 4 -14 6 -3 5 -4 -2 -3 -15 3 -23 26 -8 26
6 0 9 -4 6 -9z m1562 -3 c-6 -18 -28 -21 -28 -4 0 9 7 16 16 16 9 0 14 -5 12
-12z m52 -23 c0 -28 -15 -34 -24 -9 -10 25 -7 34 9 34 9 0 15 -9 15 -25z
m-1475 -12 c28 -31 28 -32 15 -53 -9 -13 -11 -13 -20 0 -5 8 -7 23 -4 33 3 10
2 17 -3 16 -22 -4 -32 2 -27 16 8 20 9 19 39 -12z m-3907 -43 c96 -11 95 -11
187 -85 39 -30 90 -67 115 -82 25 -14 55 -35 68 -47 l23 -21 -32 -26 -32 -26
24 -34 c15 -21 31 -33 41 -31 9 2 19 -1 22 -6 3 -5 -11 -12 -32 -15 -20 -3
-50 -10 -67 -17 l-30 -12 25 -16 c40 -25 120 -110 120 -127 0 -24 -39 -18
-110 16 l-65 30 27 -28 c32 -33 49 -75 39 -92 -11 -17 -59 -41 -82 -41 -10 0
-31 5 -46 12 -32 13 -163 137 -163 153 0 7 -10 21 -22 33 -24 22 -33 38 -91
167 -44 98 -64 162 -73 237 -8 69 -2 80 39 73 18 -3 69 -9 115 -15z m3962 -4
c0 -2 7 -20 15 -40 13 -31 13 -36 1 -36 -9 0 -12 7 -9 20 3 12 0 20 -6 20 -7
0 -10 -4 -6 -9 3 -5 1 -12 -5 -16 -6 -4 -10 8 -10 29 0 20 5 36 10 36 6 0 10
-2 10 -4z m-812 -28 c5 -24 -13 -23 -39 3 l-20 20 28 -3 c17 -2 29 -10 31 -20z
m918 -15 c-10 -10 -19 5 -10 18 6 11 8 11 12 0 2 -7 1 -15 -2 -18z m-972 -52
c-15 -15 -16 -14 -10 9 3 14 6 32 6 40 1 8 6 4 11 -9 7 -19 6 -28 -7 -40z
m2305 43 c2 -2 -10 -4 -27 -4 -18 0 -32 5 -32 10 0 9 47 4 59 -6z m26 6 c3 -5
1 -10 -4 -10 -6 0 -11 5 -11 10 0 6 2 10 4 10 3 0 8 -4 11 -10z m-2468 -96
c-3 -3 -12 -4 -19 -1 -8 3 -5 6 6 6 11 1 17 -2 13 -5z m1178 -3 c3 -5 1 -12
-5 -16 -5 -3 -10 1 -10 9 0 18 6 21 15 7z m460 -63 c23 -18 25 -22 11 -30 -23
-13 -82 24 -70 44 9 14 30 9 59 -14z m-295 -28 c0 -5 -2 -10 -4 -10 -3 0 -8 5
-11 10 -3 6 -1 10 4 10 6 0 11 -4 11 -10z m-30 -10 c0 -5 -4 -10 -10 -10 -5 0
-10 5 -10 10 0 6 5 10 10 10 6 0 10 -4 10 -10z m90 -60 c-24 -15 -36 -11 -14
4 10 8 21 12 24 10 2 -3 -2 -9 -10 -14z m-45 -10 c3 -5 1 -10 -4 -10 -6 0 -11
5 -11 10 0 6 2 10 4 10 3 0 8 -4 11 -10z m2 -26 c-3 -3 -12 -4 -19 -1 -8 3 -5
6 6 6 11 1 17 -2 13 -5z m158 -12 c-3 -3 -11 0 -18 7 -9 10 -8 11 6 5 10 -3
15 -9 12 -12z m-990 -2 c3 -6 36 -34 73 -64 37 -29 78 -64 92 -76 48 -44 217
-166 308 -224 51 -32 92 -60 92 -62 0 -1 -56 -1 -125 0 -92 3 -130 7 -143 18
-16 14 -119 48 -187 63 -70 14 -165 49 -165 59 0 6 7 46 15 89 8 43 15 108 15
143 0 59 9 79 25 54z m960 -10 c3 -6 -1 -7 -9 -4 -18 7 -21 14 -7 14 6 0 13
-4 16 -10z m-44 -74 c-14 -8 -31 -11 -39 -9 -19 8 0 18 35 20 l28 2 -24 -13z
m30 -13 c-11 -4 -11 -7 0 -14 7 -4 10 -12 5 -16 -5 -4 -11 -2 -13 4 -3 8 -15
11 -31 8 -26 -5 -26 -5 3 9 17 9 35 15 40 15 6 0 4 -3 -4 -6z m54 -43 c4 -6
-6 -10 -22 -10 -22 0 -25 2 -13 10 19 12 27 12 35 0z m-3801 -174 c-11 -8 -47
-26 -80 -41 -32 -14 -69 -31 -81 -37 -26 -13 -45 -2 -23 13 8 5 33 14 55 20
22 6 60 22 85 35 49 26 76 32 44 10z m4136 -208 c0 -5 -4 -8 -10 -8 -5 0 -10
10 -10 23 0 18 2 19 10 7 5 -8 10 -18 10 -22z m30 -44 c0 -8 -4 -12 -10 -9 -5
3 -10 10 -10 16 0 5 5 9 10 9 6 0 10 -7 10 -16z m830 -34 c0 -5 -4 -10 -10
-10 -5 0 -10 5 -10 10 0 6 5 10 10 10 6 0 10 -4 10 -10z m-986 -386 c4 -10 1
-14 -6 -12 -15 5 -23 28 -10 28 5 0 13 -7 16 -16z m30 -135 c33 -39 37 -76 4
-38 -31 34 -50 69 -39 69 5 0 21 -14 35 -31z m461 -89 c18 -1 18 -2 3 -10 -22
-14 -80 7 -58 20 9 6 19 5 24 0 6 -6 19 -10 31 -10z m-7778 -6 c-3 -3 -12 -4
-19 -1 -8 3 -5 6 6 6 11 1 17 -2 13 -5z m289 -105 c3 -5 1 -9 -5 -9 -17 0 -41
12 -41 20 0 10 38 1 46 -11z m7254 -36 c18 -17 5 -17 -56 -2 -42 11 -57 32
-37 52 6 7 66 -25 93 -50z m-7180 17 c0 -5 -7 -10 -16 -10 -8 0 -12 5 -9 10 3
6 10 10 16 10 5 0 9 -4 9 -10z m199 -57 c2 -2 2 -6 -1 -9 -6 -6 -148 34 -161
45 -7 7 154 -29 162 -36z m96 -33 c3 -5 1 -10 -4 -10 -6 0 -11 5 -11 10 0 6 2
10 4 10 3 0 8 -4 11 -10z m42 -16 c-3 -3 -12 -4 -19 -1 -8 3 -5 6 6 6 11 1 17
-2 13 -5z m68 -4 l20 -9 -20 0 c-11 0 -27 4 -35 9 -13 9 -13 10 0 9 8 0 24 -4
35 -9z m62 -6 c-3 -3 -12 -4 -19 -1 -8 3 -5 6 6 6 11 1 17 -2 13 -5z m133 -30
c0 -11 -5 -14 -16 -10 -9 3 -20 6 -25 6 -6 0 -7 5 -4 10 10 16 45 12 45 -6z
m85 -4 c21 0 26 -3 15 -9 -19 -11 -90 -2 -90 11 0 6 10 8 23 4 12 -3 36 -6 52
-6z m1154 -24 c-2 -2 -17 -6 -34 -10 -22 -5 -26 -4 -15 4 14 9 59 15 49 6z
m-956 -13 c-7 -2 -19 -2 -25 0 -7 3 -2 5 12 5 14 0 19 -2 13 -5z m132 -3 c-11
-5 -29 -8 -40 -8 -16 0 -15 2 5 8 34 11 60 11 35 0z m253 3 c-27 -2 -69 -2
-95 0 -27 2 -5 3 47 3 52 0 74 -1 48 -3z m-195 -10 c-7 -2 -19 -2 -25 0 -7 3
-2 5 12 5 14 0 19 -2 13 -5z"/>
<path d="M3930 8209 c-14 -11 -36 -25 -50 -30 l-25 -11 34 -14 c42 -18 46 -18
32 0 -9 11 -6 21 15 45 30 36 29 38 -6 10z"/>
<path d="M3300 8216 c0 -2 9 -6 20 -9 11 -3 18 -1 14 4 -5 9 -34 13 -34 5z"/>
<path d="M3076 8201 c-4 -7 -5 -15 -2 -18 9 -9 19 4 14 18 -4 11 -6 11 -12 0z"/>
<path d="M4263 8165 c-3 -9 -3 -18 0 -22 10 -10 37 6 37 22 0 20 -29 20 -37 0z"/>
<path d="M3960 7920 c0 -5 7 -10 15 -10 8 0 15 5 15 10 0 6 -7 10 -15 10 -8 0
-15 -4 -15 -10z"/>
<path d="M4270 7500 c0 -5 5 -10 10 -10 6 0 10 5 10 10 0 6 -4 10 -10 10 -5 0
-10 -4 -10 -10z"/>
<path d="M7535 7480 c-3 -5 -1 -10 4 -10 6 0 11 5 11 10 0 6 -2 10 -4 10 -3 0
-8 -4 -11 -10z"/>
<path d="M6310 7433 c8 -3 23 -13 33 -21 13 -12 20 -13 29 -4 9 9 7 12 -10 12
-12 0 -22 5 -22 10 0 6 -10 10 -22 9 -15 0 -18 -2 -8 -6z"/>
<path d="M6500 7430 c0 -5 5 -10 11 -10 5 0 7 5 4 10 -3 6 -8 10 -11 10 -2 0
-4 -4 -4 -10z"/>
<path d="M7675 7413 c-24 -26 -35 -61 -16 -49 10 7 53 76 46 76 -2 0 -16 -12
-30 -27z"/>
<path d="M6428 7413 c22 -16 39 -16 45 1 4 10 -3 14 -28 13 -29 -1 -31 -3 -17
-14z"/>
<path d="M7610 7384 c0 -8 5 -12 10 -9 6 3 10 10 10 16 0 5 -4 9 -10 9 -5 0
-10 -7 -10 -16z"/>
<path d="M7554 7382 c-17 -11 -36 -52 -25 -52 6 0 17 14 26 30 16 32 16 34 -1
22z"/>
<path d="M7680 7366 c0 -2 7 -6 15 -10 8 -3 15 -1 15 4 0 6 -7 10 -15 10 -8 0
-15 -2 -15 -4z"/>
<path d="M7574 7335 c-3 -8 2 -22 11 -32 20 -20 55 -25 48 -7 -2 6 5 19 17 27
18 13 19 15 5 21 -22 8 -38 -2 -31 -21 4 -9 1 -13 -6 -10 -7 2 -12 12 -12 21
2 20 -25 21 -32 1z"/>
<path d="M6624 7305 c-9 -19 -20 -35 -25 -35 -5 0 -9 -6 -9 -14 0 -8 -6 -16
-12 -19 -7 -2 -9 -8 -5 -13 4 -5 12 -2 17 6 7 11 11 12 24 0 9 -7 19 -10 23
-7 3 4 -2 9 -11 13 -29 11 -18 39 15 36 3 0 6 15 6 34 1 19 -1 34 -3 34 -1 0
-11 -16 -20 -35z"/>
<path d="M6841 7314 c0 -11 3 -14 6 -6 3 7 2 16 -1 19 -3 4 -6 -2 -5 -13z"/>
<path d="M7470 7315 c-9 -11 -10 -19 -3 -26 6 -6 13 -1 21 16 13 28 2 34 -18
10z"/>
<path d="M4510 7300 c0 -16 -7 -20 -30 -20 -24 0 -33 -6 -41 -26 -11 -31 -11
-31 16 -36 14 -2 21 3 23 19 2 12 14 29 28 37 24 16 33 46 14 46 -5 0 -10 -9
-10 -20z"/>
<path d="M4571 7294 c0 -11 3 -14 6 -6 3 7 2 16 -1 19 -3 4 -6 -2 -5 -13z"/>
<path d="M7513 7295 c-3 -9 -3 -18 -1 -21 3 -3 8 4 11 16 6 23 -1 27 -10 5z"/>
<path d="M4636 7291 c-4 -7 -5 -15 -2 -18 9 -9 19 4 14 18 -4 11 -6 11 -12 0z"/>
<path d="M7684 7276 c0 -14 6 -22 14 -19 15 6 15 11 -2 28 -12 12 -14 11 -12
-9z"/>
<path d="M14425 7290 c-3 -6 1 -7 9 -4 18 7 21 14 7 14 -6 0 -13 -4 -16 -10z"/>
<path d="M8080 7274 c0 -8 5 -12 10 -9 6 3 10 10 10 16 0 5 -4 9 -10 9 -5 0
-10 -7 -10 -16z"/>
<path d="M6555 7259 c-4 -6 -5 -12 -2 -15 2 -3 7 2 10 11 7 17 1 20 -8 4z"/>
<path d="M7462 7240 c0 -19 2 -27 5 -17 2 9 2 25 0 35 -3 9 -5 1 -5 -18z"/>
<path d="M8195 7260 c-3 -5 -2 -10 4 -10 5 0 13 5 16 10 3 6 2 10 -4 10 -5 0
-13 -4 -16 -10z"/>
<path d="M4586 7235 c-3 -9 0 -15 9 -15 8 0 15 7 15 15 0 8 -4 15 -9 15 -5 0
-11 -7 -15 -15z"/>
<path d="M7800 7220 c-13 -8 -12 -10 3 -10 9 0 17 5 17 10 0 12 -1 12 -20 0z"/>
<path d="M8195 7200 c-3 -5 3 -10 15 -10 12 0 18 5 15 10 -3 6 -10 10 -15 10
-5 0 -12 -4 -15 -10z"/>
<path d="M4549 7198 c-6 -12 -4 -48 2 -48 5 0 9 9 9 19 0 11 6 22 13 24 7 3 5
6 -5 6 -10 1 -19 0 -19 -1z"/>
<path d="M4605 7191 c-6 -11 9 -23 19 -14 9 9 7 23 -3 23 -6 0 -12 -4 -16 -9z"/>
<path d="M6765 7190 c-3 -5 -2 -10 4 -10 5 0 13 5 16 10 3 6 2 10 -4 10 -5 0
-13 -4 -16 -10z"/>
<path d="M6820 7190 c0 -5 5 -10 11 -10 5 0 7 5 4 10 -3 6 -8 10 -11 10 -2 0
-4 -4 -4 -10z"/>
<path d="M8120 7190 c0 -5 5 -10 10 -10 6 0 10 5 10 10 0 6 -4 10 -10 10 -5 0
-10 -4 -10 -10z"/>
<path d="M2793 7133 c0 -26 -3 -60 -7 -75 -7 -24 -5 -28 13 -28 12 0 21 5 21
10 0 20 31 9 40 -15 5 -13 26 -33 47 -44 21 -10 45 -31 53 -45 15 -30 35 -34
44 -10 6 16 20 12 22 -7 3 -22 6 -23 14 -4 8 18 9 17 9 -7 1 -24 5 -28 29 -28
33 0 46 -9 50 -35 6 -29 34 -75 44 -69 4 3 8 30 8 60 0 48 -4 60 -29 85 -16
16 -32 34 -34 41 -4 10 -7 10 -15 0 -6 -10 -13 -7 -28 13 -12 16 -28 25 -46
25 -34 0 -37 17 -5 23 16 3 14 5 -10 6 -17 0 -38 7 -45 14 -14 15 -86 51 -103
52 -26 2 -45 19 -45 40 0 12 -6 28 -14 34 -11 10 -14 4 -13 -36z"/>
<path d="M5720 7170 c0 -5 5 -10 11 -10 5 0 7 5 4 10 -3 6 -8 10 -11 10 -2 0
-4 -4 -4 -10z"/>
<path d="M7462 7150 c0 -19 2 -27 5 -17 2 9 2 25 0 35 -3 9 -5 1 -5 -18z"/>
<path d="M8135 7150 c10 -11 23 -20 28 -20 6 0 0 9 -13 20 -13 11 -25 20 -28
20 -3 0 3 -9 13 -20z"/>
<path d="M8270 7160 c0 -5 5 -10 10 -10 6 0 10 5 10 10 0 6 -4 10 -10 10 -5 0
-10 -4 -10 -10z"/>
<path d="M5520 7133 c0 -13 -3 -14 -12 -5 -14 14 -28 16 -28 3 0 -14 44 -21
52 -8 6 9 8 8 8 -2 0 -8 2 -12 5 -9 8 7 -5 38 -16 38 -5 0 -9 -8 -9 -17z"/>
<path d="M5675 7139 c-4 -6 -4 -13 -1 -16 3 -4 6 -1 6 5 0 6 7 9 15 6 8 -4 15
-1 15 5 0 14 -27 14 -35 0z"/>
<path d="M8100 7140 c0 -5 5 -10 11 -10 5 0 7 5 4 10 -3 6 -8 10 -11 10 -2 0
-4 -4 -4 -10z"/>
<path d="M4560 7125 c-7 -8 -19 -15 -26 -15 -8 0 -14 -4 -14 -10 0 -5 7 -10
15 -10 8 0 15 5 15 11 0 5 5 7 12 3 7 -4 8 -3 4 4 -4 7 -1 12 8 12 9 0 16 5
16 10 0 15 -16 12 -30 -5z"/>
<path d="M4706 7133 c5 -5 12 -12 16 -18 4 -6 8 -2 8 8 0 9 -7 17 -17 17 -9 0
-12 -3 -7 -7z"/>
<path d="M5430 7090 c0 -5 5 -10 11 -10 5 0 7 5 4 10 -3 6 -8 10 -11 10 -2 0
-4 -4 -4 -10z"/>
<path d="M5467 7079 c-4 -16 -3 -18 9 -8 16 13 19 29 5 29 -5 0 -11 -9 -14
-21z"/>
<path d="M4607 7073 c-13 -12 -7 -43 8 -43 8 0 15 6 15 13 0 18 -15 38 -23 30z"/>
<path d="M8150 7071 c0 -6 4 -13 10 -16 6 -3 7 1 4 9 -7 18 -14 21 -14 7z"/>
<path d="M7888 7052 c-16 -2 -28 -8 -28 -13 0 -8 48 -2 59 7 8 7 -4 9 -31 6z"/>
<path d="M4968 6943 c7 -3 16 -2 19 1 4 3 -2 6 -13 5 -11 0 -14 -3 -6 -6z"/>
<path d="M7052 6930 c7 -11 19 -20 27 -20 10 0 11 3 2 13 -6 8 -8 17 -4 20 3
4 -3 7 -15 7 -20 0 -21 -2 -10 -20z"/>
<path d="M7115 6920 c-3 -5 -1 -10 4 -10 6 0 11 5 11 10 0 6 -2 10 -4 10 -3 0
-8 -4 -11 -10z"/>
<path d="M11445 6910 c3 -5 12 -7 20 -3 21 7 19 13 -6 13 -11 0 -18 -4 -14
-10z"/>
<path d="M11490 6909 c0 -5 16 -9 36 -9 19 0 33 4 30 8 -7 12 -66 13 -66 1z"/>
<path d="M6946 6861 c-4 -7 -5 -15 -2 -18 9 -9 19 4 14 18 -4 11 -6 11 -12 0z"/>
<path d="M8510 6810 c0 -5 5 -10 10 -10 6 0 10 5 10 10 0 6 -4 10 -10 10 -5 0
-10 -4 -10 -10z"/>
<path d="M14928 6715 c-14 -22 -37 -60 -52 -83 -15 -24 -25 -46 -22 -50 3 -3
-1 -13 -10 -23 -8 -9 -17 -35 -18 -57 -2 -22 -6 -44 -8 -48 -11 -19 -8 -127 3
-154 13 -27 15 -28 91 -28 l79 0 12 31 c7 18 12 69 12 117 -1 47 3 91 8 97 5
7 7 39 5 72 -3 46 -10 66 -35 97 -16 21 -32 46 -35 54 -3 10 -12 2 -30 -25z"/>
<path d="M7280 6725 c0 -8 5 -15 10 -15 6 0 10 7 10 15 0 8 -4 15 -10 15 -5 0
-10 -7 -10 -15z"/>
<path d="M7218 6714 c-2 -5 1 -20 8 -34 8 -14 13 -18 13 -10 -1 24 -15 55 -21
44z"/>
<path d="M8855 6650 c-3 -5 1 -10 9 -10 9 0 16 5 16 10 0 6 -4 10 -9 10 -6 0
-13 -4 -16 -10z"/>
<path d="M1081 6534 c0 -11 3 -14 6 -6 3 7 2 16 -1 19 -3 4 -6 -2 -5 -13z"/>
<path d="M7769 6503 c-13 -16 -12 -17 4 -4 9 7 17 15 17 17 0 8 -8 3 -21 -13z"/>
<path d="M7676 6495 c-9 -26 -7 -32 5 -12 6 10 9 21 6 23 -2 3 -7 -2 -11 -11z"/>
<path d="M9000 6490 c0 -5 5 -10 10 -10 6 0 10 5 10 10 0 6 -4 10 -10 10 -5 0
-10 -4 -10 -10z"/>
<path d="M8996 6294 c-4 -9 -4 -19 -1 -22 2 -3 7 3 11 12 4 9 4 19 1 22 -2 3
-7 -3 -11 -12z"/>
<path d="M9015 6150 c-3 -6 1 -7 9 -4 18 7 21 14 7 14 -6 0 -13 -4 -16 -10z"/>
<path d="M9002 6082 c3 -40 14 -50 23 -21 5 14 1 27 -9 38 -15 15 -17 14 -14
-17z"/>
<path d="M15220 5999 c0 -5 5 -7 10 -4 6 3 10 8 10 11 0 2 -4 4 -10 4 -5 0
-10 -5 -10 -11z"/>
<path d="M15168 5954 c-21 -19 -35 -34 -32 -34 4 0 -1 -12 -11 -26 -28 -42 4
-24 48 28 49 58 45 79 -5 32z"/>
<path d="M15097 5964 c-16 -9 -27 -17 -25 -20 5 -5 68 25 68 32 0 7 -15 3 -43
-12z"/>
<path d="M8330 5839 c0 -5 5 -7 10 -4 6 3 10 8 10 11 0 2 -4 4 -10 4 -5 0 -10
-5 -10 -11z"/>
<path d="M15280 5799 c0 -6 -9 -24 -21 -40 -11 -16 -17 -29 -14 -29 13 0 -21
-27 -35 -28 -40 -3 -99 -22 -140 -44 -41 -23 -45 -27 -42 -59 2 -19 10 -41 18
-50 11 -12 11 -18 2 -27 -22 -22 11 -14 34 8 22 20 44 27 34 11 -4 -5 3 -7 13
-4 11 3 22 12 26 21 5 14 4 15 -6 5 -7 -7 -18 -13 -23 -13 -6 1 0 10 13 21 32
26 21 35 -12 9 -14 -11 -29 -20 -33 -20 -5 0 2 7 14 16 13 9 21 21 19 27 -4
13 49 57 67 57 6 0 -4 -10 -21 -21 -38 -24 -42 -33 -12 -24 15 5 19 4 15 -4
-4 -6 -3 -11 3 -11 16 0 22 18 9 23 -9 3 -7 9 6 19 19 15 19 15 0 26 -10 6
-14 12 -7 12 6 0 19 3 27 6 12 4 15 2 10 -9 -3 -8 -1 -18 5 -22 7 -4 8 0 4 11
-5 13 -2 15 18 10 13 -3 18 -3 11 0 -8 4 -4 12 14 26 22 18 29 19 49 8 13 -7
28 -10 33 -6 6 3 13 0 16 -6 3 -7 4 3 3 22 -2 30 -6 36 -32 40 -18 3 -34 14
-40 28 -10 23 -25 30 -25 11z m-20 -99 c-8 -5 -19 -10 -25 -10 -5 0 -3 5 5 10
8 5 20 10 25 10 6 0 3 -5 -5 -10z"/>
<path d="M14900 5744 c0 -8 5 -12 10 -9 6 3 10 10 10 16 0 5 -4 9 -10 9 -5 0
-10 -7 -10 -16z"/>
<path d="M14936 5741 c-3 -5 1 -11 9 -14 9 -4 12 -1 8 9 -6 16 -10 17 -17 5z"/>
<path d="M8419 5694 c-22 -25 -22 -26 -3 -16 12 6 24 18 28 27 8 21 3 19 -25
-11z"/>
<path d="M15495 5712 c6 -5 21 -13 35 -17 17 -5 22 -4 15 3 -5 5 -21 13 -35
17 -17 5 -22 4 -15 -3z"/>
<path d="M15410 5699 c0 -13 34 -25 90 -33 l45 -6 -40 16 c-67 27 -95 33 -95
23z"/>
<path d="M15574 5665 c8 -8 21 -15 28 -15 8 1 6 6 -6 15 -26 20 -42 19 -22 0z"/>
<path d="M8601 5640 c-19 -17 -32 -32 -30 -35 3 -2 22 11 44 30 21 19 34 35
29 35 -5 0 -24 -14 -43 -30z"/>
<path d="M15511 5635 c10 -10 80 -14 74 -5 -4 6 -22 10 -42 10 -20 0 -34 -2
-32 -5z"/>
<path d="M15596 5615 c-3 -8 -1 -15 4 -15 6 0 10 7 10 15 0 8 -2 15 -4 15 -2
0 -6 -7 -10 -15z"/>
<path d="M15062 5506 c-14 -7 -21 -17 -19 -28 3 -9 0 -19 -7 -22 -6 -2 -2 -5
8 -5 18 -1 18 -2 1 -21 -18 -19 -17 -20 6 -20 17 0 20 3 11 9 -11 6 -10 10 4
15 16 6 16 8 4 16 -8 6 -11 10 -6 10 5 0 2 7 -5 17 -13 15 -11 16 16 10 17 -3
24 -4 18 -1 -19 8 -16 27 3 20 8 -3 12 -2 9 4 -7 12 -12 11 -43 -4z"/>
<path d="M9060 5460 c20 -13 47 -13 55 0 4 6 -9 10 -32 10 -28 0 -34 -3 -23
-10z"/>
<path d="M15109 5443 c-13 -16 -12 -17 4 -4 9 7 17 15 17 17 0 8 -8 3 -21 -13z"/>
<path d="M8955 5420 c-3 -5 -1 -18 4 -27 9 -16 10 -16 11 4 0 12 6 24 13 26 7
3 6 6 -5 6 -9 1 -20 -3 -23 -9z"/>
<path d="M15098 5403 c13 -3 19 -9 16 -15 -4 -7 -2 -8 5 -4 17 11 3 26 -22 25
-22 -2 -22 -2 1 -6z"/>
<path d="M8430 5390 c0 -5 5 -10 10 -10 6 0 10 5 10 10 0 6 -4 10 -10 10 -5 0
-10 -4 -10 -10z"/>
<path d="M15034 5389 c-3 -6 -2 -15 4 -21 6 -6 12 -6 17 3 6 8 4 10 -5 4 -10
-6 -12 -4 -7 8 7 19 2 23 -9 6z"/>
<path d="M9570 5306 c98 -23 145 -57 162 -116 5 -16 6 -9 3 20 -3 33 -11 51
-30 68 -15 12 -31 20 -36 17 -5 -4 -9 -3 -9 2 0 4 -10 8 -22 9 -13 0 -45 3
-73 7 l-50 6 55 -13z"/>
<path d="M9440 5299 c78 -10 139 -26 160 -42 49 -37 64 -102 33 -147 -17 -25
-17 -25 4 -7 11 10 26 38 33 62 15 54 1 83 -53 108 -37 18 -150 37 -207 36
-21 -1 -9 -5 30 -10z"/>
<path d="M9570 5185 c0 -8 2 -15 4 -15 2 0 6 7 10 15 3 8 1 15 -4 15 -6 0 -10
-7 -10 -15z"/>
<path d="M9406 5016 c-16 -13 -42 -27 -59 -30 -17 -3 -28 -9 -24 -12 13 -14
127 37 127 57 0 14 -13 10 -44 -15z"/>
<path d="M4272 5009 c-14 -22 -10 -35 6 -25 12 7 23 46 13 46 -3 0 -12 -9 -19
-21z"/>
<path d="M4236 4961 c-4 -5 -2 -12 3 -15 5 -4 12 -2 15 3 4 5 2 12 -3 15 -5 4
-12 2 -15 -3z"/>
<path d="M4207 4920 c-3 -11 -2 -20 3 -20 4 0 10 9 13 20 3 11 2 20 -3 20 -4
0 -10 -9 -13 -20z"/>
<path d="M8915 4790 c3 -5 10 -10 16 -10 5 0 9 5 9 10 0 6 -7 10 -16 10 -8 0
-12 -4 -9 -10z"/>
<path d="M8781 4733 c19 -16 43 -33 53 -37 16 -5 6 -15 -54 -52 -41 -25 -80
-54 -88 -65 -8 -11 -21 -18 -29 -15 -8 3 -12 2 -9 -3 3 -4 -6 -19 -19 -31 -14
-13 -25 -19 -25 -14 -1 5 -7 -6 -15 -24 -9 -21 -19 -31 -26 -26 -8 4 -9 3 -5
-4 4 -7 3 -12 -2 -12 -10 0 -33 -85 -34 -127 -1 -44 19 -97 50 -126 27 -26
172 -73 196 -63 6 2 4 5 -4 5 -8 1 -40 13 -70 27 -46 21 -52 27 -38 35 13 7
37 4 85 -12 52 -16 99 -23 198 -25 146 -4 184 5 157 36 -15 18 -27 48 -60 145
-9 28 -23 55 -32 62 -13 10 -13 12 3 19 10 3 21 4 24 0 4 -3 -2 -6 -13 -7 -18
0 -18 -1 1 -9 28 -12 118 -12 110 0 -3 5 -13 7 -23 4 -13 -5 -14 -4 -3 4 20
14 7 40 -26 53 -69 29 -93 40 -98 49 -11 18 -26 11 -16 -7 5 -10 12 -35 15
-55 4 -29 3 -36 -8 -32 -8 3 -16 28 -20 62 -4 36 -21 85 -44 132 -55 108 -63
119 -97 125 -16 4 -39 9 -49 12 -13 4 -7 -5 15 -24z m-214 -420 c-2 -16 -4 -3
-4 27 0 30 2 43 4 28 2 -16 2 -40 0 -55z"/>
<path d="M8908 4743 c6 -2 18 -2 25 0 6 3 1 5 -13 5 -14 0 -19 -2 -12 -5z"/>
<path d="M10222 4599 c-13 -28 -39 -68 -58 -89 -19 -20 -34 -43 -34 -49 0 -7
-4 -10 -9 -7 -5 3 -14 0 -20 -8 -9 -10 -7 -17 6 -27 15 -12 16 -12 10 5 -6 15
-5 17 7 7 7 -6 22 -8 31 -4 14 5 16 3 10 -7 -6 -9 -4 -11 4 -6 7 5 10 15 7 23
-4 8 -2 11 5 7 6 -3 22 6 36 22 13 16 23 22 20 14 -2 -8 -1 -24 4 -35 6 -17 8
-15 8 10 1 17 5 45 10 63 8 25 7 32 -5 32 -17 0 -19 17 -3 22 9 3 9 15 3 41
l-9 38 -23 -52z"/>
<path d="M7876 4473 c-6 -14 -5 -15 5 -6 7 7 10 15 7 18 -3 3 -9 -2 -12 -12z"/>
<path d="M9333 4473 c-25 -9 -13 -23 20 -23 23 0 34 5 34 15 0 15 -28 19 -54
8z"/>
<path d="M3770 4400 c-12 -8 -11 -10 8 -10 12 0 22 5 22 10 0 13 -11 13 -30 0z"/>
<path d="M3750 4370 c0 -5 5 -10 11 -10 5 0 7 5 4 10 -3 6 -8 10 -11 10 -2 0
-4 -4 -4 -10z"/>
<path d="M10104 4359 c-24 -26 -162 -118 -231 -153 -142 -71 -342 -136 -528
-171 -148 -27 -420 -32 -533 -9 -80 16 -174 53 -205 81 -14 13 -17 13 -12 2
13 -34 147 -105 235 -124 8 -1 33 -8 55 -13 75 -20 120 -24 255 -26 134 -2
297 7 355 18 53 11 109 18 138 18 15 -1 27 3 27 8 0 5 7 6 17 3 11 -4 14 -3 9
5 -5 8 1 12 18 12 35 0 80 28 107 69 39 57 90 105 155 144 66 40 186 157 161
157 -2 0 -12 -9 -23 -21z"/>
<path d="M9160 4367 c0 -2 7 -26 16 -53 21 -61 40 -83 30 -34 -13 64 -24 90
-37 90 -5 0 -9 -1 -9 -3z"/>
<path d="M7020 4230 c-5 -3 0 -15 13 -25 31 -27 233 -125 257 -125 11 0 20 -4
20 -10 0 -5 5 -10 11 -10 6 0 37 -16 70 -35 l59 -34 -19 37 c-11 20 -31 48
-46 62 -14 14 -38 37 -53 51 -47 45 -89 69 -120 69 -17 0 -32 6 -35 13 -3 9
-8 9 -21 -2 -9 -8 -19 -11 -22 -8 -3 3 -19 1 -35 -3 -23 -7 -29 -5 -29 6 0 11
6 13 23 8 12 -3 19 -3 14 1 -9 10 -74 13 -87 5z m95 -51 c11 -16 1 -19 -13 -3
-7 8 -8 14 -3 14 5 0 13 -5 16 -11z"/>
<path d="M8798 4123 c6 -2 18 -2 25 0 6 3 1 5 -13 5 -14 0 -19 -2 -12 -5z"/>
<path d="M8968 4113 c7 -3 16 -2 19 1 4 3 -2 6 -13 5 -11 0 -14 -3 -6 -6z"/>
<path d="M8975 4090 c-14 -6 -4 -9 35 -8 42 0 49 2 30 8 -32 10 -41 10 -65 0z"/>
<path d="M9098 4083 c6 -2 18 -2 25 0 6 3 1 5 -13 5 -14 0 -19 -2 -12 -5z"/>
<path d="M4466 3855 c-87 -35 -109 -38 -149 -19 -36 17 -36 17 -137 -25 -56
-23 -163 -65 -239 -93 -75 -28 -156 -58 -181 -68 -25 -9 -103 -40 -175 -67
-71 -28 -157 -63 -190 -78 -33 -14 -105 -45 -160 -67 -55 -22 -154 -66 -220
-98 -66 -32 -163 -76 -215 -98 -52 -22 -120 -51 -150 -65 -87 -41 -379 -167
-445 -192 -33 -13 -109 -45 -170 -70 -109 -46 -219 -85 -345 -123 -83 -25
-206 -69 -247 -88 -17 -7 -36 -14 -41 -14 -6 0 -23 -6 -39 -14 -107 -55 -281
-133 -353 -158 -47 -16 -94 -34 -104 -40 -10 -5 -46 -20 -80 -33 -34 -13 -124
-51 -201 -85 -133 -59 -554 -230 -602 -245 l-23 -6 0 -600 c0 -336 4 -599 9
-599 5 0 33 11 62 24 30 13 105 40 167 60 63 20 142 49 175 64 34 16 82 34
107 41 25 7 81 28 125 46 116 47 201 80 275 105 36 12 79 28 97 36 17 8 38 14
47 14 9 0 24 4 34 10 9 5 47 23 85 39 37 16 70 37 73 45 3 9 16 16 28 16 22 0
176 60 198 77 7 5 50 22 94 36 90 29 124 49 324 184 311 211 688 461 735 488
28 15 57 33 65 40 16 13 101 59 305 165 72 37 182 95 245 129 63 34 187 98
275 142 193 98 204 104 217 117 6 6 16 8 24 5 7 -2 26 2 41 11 84 46 231 106
323 130 58 16 115 32 128 37 13 5 31 9 41 9 11 0 22 7 25 16 4 10 2 13 -7 8
-6 -4 -2 3 11 15 12 12 22 30 22 40 0 10 7 24 15 31 19 16 9 33 -16 25 -11 -4
-19 -2 -19 4 0 6 -9 11 -21 11 -13 0 -20 6 -18 18 4 45 -1 62 -21 62 -13 0
-20 7 -20 19 0 10 -7 21 -15 25 -10 3 -15 19 -15 43 0 64 -18 106 -70 162 -48
53 -78 70 -169 95 l-45 13 25 16 c64 41 356 171 529 235 45 17 72 40 64 54 -8
13 -25 9 -88 -17z"/>
<path d="M14225 3579 c-4 -6 -13 -8 -20 -5 -8 3 -19 -2 -25 -10 -7 -8 -11 -14
-9 -14 2 0 47 -9 99 -20 52 -10 96 -17 99 -14 7 6 -23 35 -40 38 -8 1 -31 10
-53 19 -46 20 -43 20 -51 6z"/>
<path d="M4552 3528 c-15 -15 -17 -271 -2 -299 6 -11 11 -51 11 -89 0 -61 -3
-74 -25 -101 -14 -17 -26 -34 -26 -39 0 -13 46 -18 200 -24 74 -3 164 -12 200
-21 36 -8 78 -17 94 -19 26 -3 45 -20 46 -38 0 -4 -8 -5 -17 -2 -16 5 -16 4
-3 -6 12 -9 13 -12 1 -17 -11 -5 -11 -7 0 -15 13 -9 -14 -4 -50 10 -9 4 -12 1
-7 -7 5 -8 3 -11 -5 -10 -8 2 -30 -5 -49 -16 -19 -10 -46 -18 -60 -17 -21 1
-22 1 -6 -6 14 -6 16 -11 8 -16 -7 -4 -17 -4 -22 -1 -13 8 -42 -14 -34 -26 3
-5 0 -9 -5 -9 -6 0 -11 -7 -11 -15 0 -8 8 -15 18 -15 14 0 15 2 2 10 -10 6
-11 10 -2 10 6 0 12 9 12 20 0 14 5 18 17 13 11 -4 12 -8 5 -11 -13 -4 -17
-32 -4 -33 4 0 15 -2 25 -4 11 -2 22 5 27 18 6 14 9 16 9 7 1 -14 11 -14 102
1 55 9 105 21 111 27 7 7 12 48 12 99 l1 88 -57 106 c-69 131 -80 149 -92 149
-4 0 -6 -9 -3 -20 6 -24 -4 -32 -23 -19 -8 5 -10 9 -4 9 7 0 14 12 17 27 l5
28 -29 -32 c-18 -21 -34 -30 -44 -27 -10 4 -15 0 -15 -12 0 -15 -2 -16 -9 -5
-5 7 -14 10 -20 7 -6 -4 -11 -1 -11 8 0 8 -15 31 -34 50 -18 20 -31 38 -29 40
3 2 0 14 -7 25 -12 24 -35 27 -47 7 -10 -17 -53 -31 -53 -18 0 6 5 12 12 14 6
2 8 10 4 16 -4 7 -16 10 -27 7 -15 -5 -19 -1 -19 15 0 15 -5 20 -14 17 -15 -6
-36 38 -36 77 0 12 -7 34 -15 50 -8 15 -12 32 -9 37 8 13 0 11 -14 -3z m531
-619 c15 0 17 -2 7 -6 -8 -3 -20 -11 -26 -19 -8 -10 -11 -6 -11 19 0 18 2 26
5 20 2 -7 13 -13 25 -14z"/>
<path d="M13571 3200 c-36 -56 -151 -278 -151 -292 0 -5 11 3 24 18 18 22 32
28 59 27 20 -1 41 5 46 11 21 25 76 286 61 286 -4 0 -21 -22 -39 -50z"/>
<path d="M4840 3230 c0 -5 5 -10 10 -10 6 0 10 5 10 10 0 6 -4 10 -10 10 -5 0
-10 -4 -10 -10z"/>
<path d="M8150 3188 c0 -9 9 -26 20 -39 l21 -24 -17 35 c-21 43 -24 47 -24 28z"/>
<path d="M15602 3045 c23 -13 77 -28 228 -65 155 -37 170 -38 170 -11 0 23
-13 28 -82 37 -29 3 -64 8 -78 10 -14 3 -50 9 -80 14 -30 5 -79 13 -109 19
-70 14 -82 13 -49 -4z"/>
<path d="M8267 3003 c-2 -5 -5 -32 -5 -61 -1 -29 -6 -69 -12 -87 -12 -37 -11
-40 39 -105 47 -61 105 -108 236 -193 61 -39 112 -75 113 -79 6 -12 32 -9 32
4 0 6 -3 8 -7 5 -9 -10 -33 13 -33 32 -1 19 -50 70 -89 91 -111 59 -108 56
-109 99 -1 22 3 53 8 68 10 28 10 28 -7 7 -10 -12 -26 -36 -35 -53 -9 -17 -21
-31 -26 -31 -5 0 -15 19 -21 43 -7 23 -17 47 -21 52 -5 6 -11 33 -14 60 -14
118 -33 176 -49 148z"/>
<path d="M13327 2733 c-28 -55 -34 -83 -17 -83 6 0 10 7 10 15 0 8 5 15 11 15
5 0 7 4 4 10 -3 5 1 23 10 40 9 17 14 37 12 43 -2 7 -16 -11 -30 -40z"/>
<path d="M4762 2745 c0 -16 2 -22 5 -12 2 9 2 23 0 30 -3 6 -5 -1 -5 -18z"/>
<path d="M15424 2739 c-2 -5 4 -14 15 -21 15 -9 17 -15 9 -25 -6 -7 -17 -13
-24 -13 -8 0 -14 -4 -14 -9 0 -13 68 -11 78 3 18 22 8 43 -25 59 -18 8 -36 11
-39 6z"/>
<path d="M15516 2711 c-9 -13 4 -42 16 -35 5 3 5 11 -2 19 -8 10 -7 14 2 18 9
4 9 6 1 6 -6 1 -14 -3 -17 -8z"/>
<path d="M15550 2669 c-24 -10 -44 -34 -45 -54 0 -5 -10 -9 -22 -8 -16 2 -21
-2 -17 -12 4 -8 15 -15 25 -15 16 0 18 -3 9 -19 -8 -16 -5 -21 19 -32 20 -9
27 -18 23 -31 -2 -10 4 -28 14 -39 11 -12 17 -24 15 -28 -3 -3 8 -8 24 -11 25
-4 26 -6 12 -18 -9 -8 -20 -11 -25 -8 -12 7 -9 -47 3 -56 6 -5 4 -12 -5 -18
-13 -8 -12 -10 3 -10 9 0 17 4 17 10 0 5 7 7 16 3 12 -4 8 -10 -17 -21 -19 -8
-29 -16 -22 -19 6 -2 26 3 43 12 18 9 34 14 37 11 3 -3 -13 -13 -36 -22 -22
-9 -41 -20 -41 -25 0 -13 5 -12 61 17 28 14 48 21 45 15 -4 -5 -31 -21 -61
-35 -30 -14 -55 -27 -55 -30 0 -3 6 -3 14 0 8 3 17 1 21 -5 3 -6 0 -11 -7 -11
-8 0 -23 -7 -34 -15 -15 -12 -10 -11 24 2 28 11 39 19 30 24 -15 10 -17 8 63
47 87 42 112 41 31 -2 l-64 -32 49 2 c26 1 66 9 88 19 88 37 13 -7 -98 -58
-78 -36 -112 -57 -102 -61 9 -3 13 -11 9 -17 -4 -7 2 -7 17 1 34 18 38 24 12
16 -44 -14 -22 11 30 33 28 13 69 32 90 42 21 11 48 19 60 18 21 0 21 -1 -3
-11 -77 -33 -130 -58 -130 -62 0 -9 64 16 82 31 9 8 25 13 35 11 12 -2 1 -12
-36 -31 -30 -15 -60 -27 -65 -27 -6 0 -20 -8 -31 -17 -18 -14 -18 -15 -2 -9
11 3 31 9 45 12 21 4 24 3 12 -5 -19 -13 0 -14 20 -1 13 9 13 10 0 10 -11 1
-10 4 4 15 27 20 42 19 25 -1 -12 -15 -11 -16 11 -9 14 4 53 20 87 36 67 31
113 45 113 35 0 -3 -15 -13 -32 -21 -23 -10 -26 -13 -8 -9 55 14 70 24 70 45
0 16 -4 19 -17 14 -10 -4 -43 -17 -73 -28 -30 -11 -61 -24 -68 -30 -7 -5 -15
-8 -18 -5 -8 9 41 36 97 52 63 19 101 40 54 30 l-30 -6 30 22 c25 18 26 21 8
16 -13 -3 -33 -8 -45 -11 l-23 -5 23 10 c70 32 69 31 42 25 -14 -3 -38 -8 -55
-11 -27 -4 -27 -3 -7 5 34 16 26 24 -15 18 l-38 -6 40 14 40 13 -38 1 c-21 1
-36 5 -33 10 3 4 -7 6 -22 3 -37 -7 -19 10 26 24 32 10 34 12 12 14 -23 1 -24
2 -5 11 15 6 8 8 -25 5 l-45 -5 43 11 c23 6 42 15 42 19 0 5 8 9 18 10 14 0
14 2 -3 9 l-20 9 20 1 c11 1 15 4 9 6 -6 3 -22 0 -35 -5 -21 -9 -22 -10 -4
-11 18 -1 17 -3 -5 -12 -24 -11 -80 -19 -80 -12 0 2 15 8 33 13 l32 9 -31 1
c-17 1 -48 -6 -68 -14 -20 -8 -36 -13 -36 -10 0 10 68 35 97 36 23 1 21 3 -12
10 -22 4 -58 6 -80 4 -40 -4 -40 -4 -7 6 47 14 39 22 -15 15 l-48 -6 50 17
c50 16 50 17 20 24 -25 5 -26 7 -7 8 27 1 20 21 -7 21 -10 0 -28 11 -41 25
-13 14 -19 25 -14 25 5 0 -7 10 -26 21 -19 12 -39 28 -43 35 -9 16 -13 16 -47
3z m-7 -126 c-7 -2 -19 -2 -25 0 -7 3 -2 5 12 5 14 0 19 -2 13 -5z m97 -68
c-14 -8 -29 -14 -35 -14 -5 0 1 6 15 14 14 8 30 14 35 14 6 0 -1 -6 -15 -14z
m135 -15 c-28 -12 -37 -12 -30 0 3 6 16 10 28 9 21 0 21 -1 2 -9z m5 -50 c-8
-5 -22 -10 -30 -10 -13 0 -13 1 0 10 8 5 22 10 30 10 13 0 13 -1 0 -10z m20
-20 c-8 -5 -22 -9 -30 -9 -10 0 -8 3 5 9 27 12 43 12 25 0z m50 -10 c-8 -5
-24 -9 -35 -9 -16 1 -16 2 5 9 35 11 48 11 30 0z m-104 -9 c-8 -12 -46 -21
-46 -11 0 5 8 11 18 13 29 8 33 7 28 -2z m-71 -31 c-11 -5 -27 -9 -35 -9 -9 0
-8 4 5 9 11 5 27 9 35 9 9 0 8 -4 -5 -9z m65 2 c0 -9 -62 -34 -68 -27 -3 3 41
26 66 34 1 1 2 -3 2 -7z m-10 -32 c-8 -5 -19 -10 -25 -10 -5 0 -3 5 5 10 8 5
20 10 25 10 6 0 3 -5 -5 -10z m80 -24 c0 -2 -7 -6 -15 -10 -8 -3 -15 -1 -15 4
0 6 7 10 15 10 8 0 15 -2 15 -4z m-56 -31 c-22 -17 -34 -19 -34 -6 0 5 8 12
18 14 32 9 36 7 16 -8z m160 -4 c15 -6 9 -11 -34 -29 -61 -25 -79 -23 -24 3
28 13 33 19 23 26 -12 7 -11 9 1 8 8 0 23 -4 34 -8z m-57 -7 c-3 -3 -12 -4
-19 -1 -8 3 -5 6 6 6 11 1 17 -2 13 -5z"/>
<path d="M13283 2633 c-15 -5 -17 -41 -4 -62 6 -9 16 -11 27 -7 14 6 16 9 5
15 -10 7 -10 10 -1 16 9 6 9 10 -1 16 -12 8 -11 11 1 19 13 9 13 10 0 9 -8 0
-21 -3 -27 -6z"/>
<path d="M14984 2569 c-14 -6 -9 -8 16 -8 19 0 44 4 55 9 15 6 12 7 -16 7 -20
-1 -45 -4 -55 -8z"/>
<path d="M9034 2556 c-6 -6 -31 -30 -56 -53 -24 -22 -55 -57 -69 -77 -27 -40
-35 -43 -59 -21 -18 17 -100 28 -100 14 0 -4 10 -14 23 -20 12 -7 47 -31 77
-53 49 -37 156 -106 165 -106 3 0 7 16 21 88 6 32 5 33 -22 30 -27 -3 -29 -1
-26 32 1 19 18 65 37 102 32 62 36 92 9 64z"/>
<path d="M14913 2543 c8 -7 -23 -32 -40 -33 -7 0 -22 -9 -32 -19 -18 -18 -18
-20 -3 -24 9 -3 4 -5 -12 -6 -21 -1 -27 -5 -22 -17 3 -8 2 -13 -3 -10 -5 3
-19 -3 -31 -14 -13 -11 -29 -20 -37 -20 -7 0 -13 -9 -13 -20 0 -11 -6 -20 -13
-20 -41 0 -184 -100 -172 -120 3 -4 -1 -10 -9 -13 -8 -3 -31 -39 -51 -79 -71
-141 -75 -146 -267 -346 -60 -63 -107 -119 -105 -125 2 -7 23 -15 48 -19 155
-27 164 -27 171 1 2 7 24 35 49 60 25 26 54 59 64 74 11 18 26 27 44 27 18 0
22 3 12 9 -11 7 -11 9 0 14 11 4 11 6 1 6 -21 1 -3 21 19 21 11 0 22 7 25 15
3 8 14 17 24 20 11 3 17 12 14 20 -3 7 8 23 25 36 17 12 28 26 25 31 -3 5 3
12 14 15 11 2 22 13 25 23 3 10 18 21 38 25 29 7 31 9 14 15 -19 7 -19 7 3 19
12 6 22 20 22 31 0 12 8 20 23 22 14 2 21 9 21 20 -1 10 14 34 32 54 19 19 34
42 34 50 0 9 12 31 27 51 26 34 26 36 9 49 -17 12 -17 13 8 20 14 3 26 10 26
14 0 4 9 10 21 13 12 3 18 10 14 16 -3 6 1 11 9 11 36 0 13 19 -26 23 l-43 4
50 2 c45 3 47 4 20 11 l-30 8 32 1 c33 1 46 13 48 43 1 15 -7 18 -53 18 -31 0
-52 -3 -49 -7z m44 -19 c-3 -3 -12 -4 -19 -1 -8 3 -5 6 6 6 11 1 17 -2 13 -5z"/>
<path d="M15799 2497 c5 -5 21 -7 37 -5 27 3 26 4 -8 9 -22 3 -34 1 -29 -4z"/>
<path d="M8690 2456 c0 -2 7 -9 15 -16 9 -7 15 -8 15 -2 0 5 -7 12 -15 16 -8
3 -15 4 -15 2z"/>
<path d="M13163 2408 c-6 -13 -30 -62 -54 -111 -23 -48 -39 -91 -35 -95 10 -9
36 26 42 58 3 14 20 55 39 92 19 37 35 69 35 72 0 15 -18 4 -27 -16z"/>
<path d="M15915 2370 c-27 -7 -28 -8 -5 -8 14 0 34 3 45 8 25 11 2 11 -40 0z"/>
<path d="M13829 2360 c0 -3 -2 -14 -4 -25 -2 -11 -6 -31 -8 -45 -3 -14 -10
-59 -17 -100 -7 -41 -17 -79 -21 -84 -11 -13 -12 -66 -1 -66 5 0 21 35 36 79
29 82 42 205 26 231 -5 8 -10 13 -11 10z"/>
<path d="M15955 2350 c-3 -5 -2 -10 4 -10 5 0 13 5 16 10 3 6 2 10 -4 10 -5 0
-13 -4 -16 -10z"/>
<path d="M15958 2323 c7 -3 16 -2 19 1 4 3 -2 6 -13 5 -11 0 -14 -3 -6 -6z"/>
<path d="M13515 2228 c-46 -69 -31 -147 46 -244 16 -21 28 -42 26 -48 -6 -17
-47 -19 -89 -5 -55 18 -67 3 -43 -50 22 -50 40 -67 92 -85 55 -19 81 -12 75
20 -2 14 3 56 12 95 10 41 15 83 11 102 -10 50 -45 117 -61 117 -12 0 -19 23
-16 51 1 3 -5 25 -12 48 l-12 43 -29 -44z"/>
<path d="M7751 2224 c11 -14 11 -18 -4 -29 -10 -7 -18 -29 -20 -54 -3 -37 0
-44 19 -51 31 -12 40 -30 15 -30 -18 0 -20 -3 -9 -19 7 -11 21 -22 32 -25 11
-3 18 -7 15 -10 -4 -4 -37 2 -156 29 -32 7 -29 -13 7 -50 17 -17 40 -50 53
-72 12 -23 63 -95 113 -161 49 -65 110 -159 134 -208 53 -108 66 -124 99 -123
24 0 24 1 6 9 -16 7 -13 9 17 9 20 1 40 -4 44 -11 5 -7 0 -9 -14 -6 -14 4 -19
2 -16 -6 3 -9 -4 -11 -26 -8 l-31 4 17 -42 c22 -55 59 -125 119 -225 94 -158
118 -189 155 -199 39 -12 80 -50 80 -76 0 -10 7 -23 15 -30 12 -10 24 -2 68
42 36 36 83 68 149 101 136 67 165 64 117 -11 -16 -25 -29 -60 -29 -77 0 -37
34 -163 48 -177 7 -7 26 -5 59 6 26 8 93 23 148 31 55 9 159 29 230 45 72 16
198 41 281 55 83 13 170 32 194 40 23 8 63 15 88 15 l45 0 -6 35 c-7 43 7 51
108 61 75 8 122 -7 136 -43 11 -31 35 -29 67 5 15 15 50 36 77 47 67 25 128
85 123 122 -3 31 5 29 -148 23 -82 -3 -188 8 -217 22 -13 6 -26 9 -29 5 -3 -3
-24 1 -46 9 -22 8 -55 14 -72 14 -18 0 -37 5 -42 10 -13 13 -165 20 -180 9
-18 -14 -98 14 -109 38 -11 27 -45 43 -89 43 -18 0 -58 5 -87 11 -30 6 -69 10
-88 10 -18 -1 -38 2 -45 7 -17 14 -87 20 -121 10 -37 -10 -126 15 -151 43 -9
11 -27 19 -38 19 -12 0 -27 4 -35 9 -9 6 -21 2 -37 -11 -18 -16 -22 -28 -18
-52 3 -18 2 -26 -3 -19 -4 6 -15 11 -23 11 -43 -3 -70 3 -70 16 0 24 -28 40
-52 29 -28 -12 -126 19 -151 48 -10 12 -19 20 -20 18 -2 -2 -10 -15 -19 -29
-14 -22 -21 -25 -74 -24 -78 2 -153 23 -165 47 -8 14 -5 27 15 58 31 46 119
105 306 207 110 59 153 89 141 96 -6 4 -11 2 -11 -3 0 -20 -31 -11 -78 21 -26
18 -52 37 -58 43 -6 6 -31 17 -55 25 -24 8 -63 25 -86 37 -24 13 -43 21 -43
18 0 -4 -13 3 -29 14 -16 12 -34 21 -40 21 -6 0 -11 4 -11 10 0 13 -57 41 -94
46 -55 6 -135 29 -148 42 -6 6 -20 12 -29 12 -9 0 -22 7 -29 14 -6 8 -28 20
-48 27 -20 6 -41 17 -47 24 -5 6 -25 20 -43 29 -18 9 -36 24 -39 32 -3 7 -10
14 -15 14 -6 0 -4 -7 3 -16z m301 -441 c87 -68 101 -83 74 -83 -8 0 -16 -6
-19 -12 -3 -10 -7 -10 -18 -1 -10 8 -20 9 -29 3 -13 -8 -12 -10 2 -10 9 0 19
-3 21 -7 3 -5 -14 -6 -38 -5 -33 3 -46 9 -55 28 -15 28 -42 33 -34 7 5 -17 5
-17 -6 0 -6 9 -18 17 -27 17 -13 0 -14 3 -5 12 9 9 7 19 -8 43 -11 18 -21 40
-23 51 -1 10 -6 25 -10 32 -5 7 -3 12 5 13 10 0 10 2 -1 6 -10 4 -10 7 -1 13
15 9 54 -15 172 -107z m71 -330 c-7 -2 -21 -2 -30 0 -10 3 -4 5 12 5 17 0 24
-2 18 -5z"/>
<path d="M15610 2190 c-98 -50 -78 -51 25 -1 44 22 73 39 65 39 -8 0 -49 -17
-90 -38z"/>
<path d="M15942 2163 c-24 -8 -41 -17 -38 -20 6 -6 77 16 91 28 13 13 -2 10
-53 -8z"/>
<path d="M15865 2160 c-85 -35 -117 -51 -113 -56 3 -3 39 11 79 30 65 30 89
49 34 26z"/>
<path d="M15860 2132 c0 -4 -17 -14 -37 -22 -69 -24 -105 -41 -100 -46 4 -5
92 26 135 48 23 12 30 28 12 28 -5 0 -10 -4 -10 -8z"/>
<path d="M6520 2124 c0 -3 13 -24 29 -47 41 -61 71 -123 71 -148 0 -13 5 -37
12 -55 15 -42 1 -60 -53 -69 -36 -6 -91 -39 -79 -47 3 -2 20 -13 38 -26 l33
-23 33 20 c43 27 81 26 130 -2 80 -46 144 -211 93 -239 -12 -6 -24 -11 -27
-11 -12 1 -30 -10 -30 -18 0 -6 9 -5 21 1 11 6 25 9 32 7 7 -3 -2 -11 -19 -18
-29 -12 -30 -14 -15 -30 9 -9 36 -20 60 -24 91 -15 241 -81 241 -105 0 -11 49
-82 123 -178 86 -112 151 -257 181 -407 4 -17 15 -45 25 -61 16 -27 26 -32 73
-37 55 -5 128 -39 182 -84 16 -13 34 -22 40 -19 6 2 49 21 96 42 85 37 124 44
325 59 80 6 117 26 42 24 -38 -2 -52 3 -73 22 -14 13 -29 24 -32 24 -4 0 -7
10 -7 22 -1 34 -31 51 -81 45 -23 -2 -56 0 -73 6 -19 7 -31 7 -31 1 0 -15 -30
-10 -36 6 -4 8 -12 15 -20 15 -14 0 -54 19 -64 31 -3 3 -13 8 -23 12 -10 4
-16 11 -12 17 11 18 -15 90 -33 90 -27 0 -100 29 -77 30 l20 1 -20 9 c-11 5
-36 9 -56 9 -23 1 -43 8 -54 21 -10 11 -24 20 -31 20 -17 0 -56 38 -72 70 -7
14 -23 30 -35 35 -12 6 -23 20 -25 32 -2 12 -12 25 -23 28 -10 4 -19 13 -19
21 0 8 -7 14 -15 14 -8 0 -15 6 -15 14 0 10 9 12 42 6 46 -9 78 1 96 30 9 15
8 22 -4 35 -8 8 -22 15 -29 15 -28 0 -65 24 -65 41 0 20 -16 32 -42 34 -26 2
-33 12 -20 28 7 8 9 17 5 20 -10 11 -45 8 -38 -3 9 -15 -12 -12 -46 6 l-30 15
6 -35 c4 -19 8 -53 9 -75 l2 -41 -30 20 c-17 10 -38 33 -47 49 -30 57 -108
166 -179 251 -39 47 -87 117 -106 155 -54 105 -142 233 -206 298 -54 54 -68
64 -68 51z m754 -866 c-3 -4 -9 -8 -15 -8 -5 0 -9 4 -9 8 0 5 7 9 15 9 8 0 12
-4 9 -9z"/>
<path d="M15905 2120 c-3 -5 1 -10 9 -10 9 0 16 5 16 10 0 6 -4 10 -9 10 -6 0
-13 -4 -16 -10z"/>
<path d="M15935 2104 c-30 -16 -51 -21 -53 -15 -5 14 -32 14 -32 1 0 -5 5 -10
11 -10 5 0 7 -5 3 -11 -12 -20 85 16 121 45 30 23 6 19 -50 -10z"/>
<path d="M13013 2085 c-20 -30 -20 -35 -6 -46 13 -11 17 -10 29 6 15 20 19 61
6 69 -4 2 -17 -11 -29 -29z"/>
<path d="M15548 2093 c7 -3 16 -2 19 1 4 3 -2 6 -13 5 -11 0 -14 -3 -6 -6z"/>
<path d="M15936 2074 c-54 -21 -98 -47 -51 -30 11 5 25 9 30 10 29 6 85 31 85
38 0 4 -1 8 -2 7 -2 0 -29 -11 -62 -25z"/>
<path d="M15945 2050 c-8 -13 5 -13 25 0 13 8 13 10 -2 10 -9 0 -20 -4 -23
-10z"/>
<path d="M5697 2039 c-18 -10 -15 -50 6 -76 7 -10 3 -13 -17 -13 -31 0 -33
-11 -6 -35 24 -21 27 -50 5 -41 -24 9 -18 -11 10 -32 29 -23 32 -32 10 -32 -8
0 -15 -4 -15 -9 0 -15 41 -24 53 -12 25 25 6 262 -21 261 -4 0 -15 -5 -25 -11z"/>
<path d="M15960 2000 c-9 -6 -10 -10 -3 -10 6 0 15 5 18 10 8 12 4 12 -15 0z"/>
<path d="M9240 1971 c0 -17 30 -40 45 -35 12 5 10 10 -9 25 -27 21 -36 24 -36
10z"/>
<path d="M10623 1960 c-6 -14 -7 -29 -2 -34 13 -15 21 -1 17 31 l-4 28 -11
-25z"/>
<path d="M15596 1971 c-4 -5 3 -7 14 -4 23 6 26 13 6 13 -8 0 -17 -4 -20 -9z"/>
<path d="M13726 1878 c-17 -109 -16 -117 1 -126 29 -15 173 -24 173 -11 0 6 7
9 15 5 26 -10 16 3 -15 19 -22 11 -35 13 -49 6 -15 -9 -20 -7 -24 9 -3 11 -1
20 4 20 5 0 9 5 9 10 0 6 -15 11 -32 11 -32 2 -32 2 -5 6 36 6 30 25 -12 36
-20 5 -35 16 -38 28 -8 29 -22 23 -27 -13z"/>
<path d="M13841 1846 c12 -10 59 -15 59 -6 0 5 -14 10 -32 10 -17 0 -29 -2
-27 -4z"/>
<path d="M13860 1819 c0 -5 5 -7 10 -4 6 3 10 8 10 11 0 2 -4 4 -10 4 -5 0
-10 -5 -10 -11z"/>
<path d="M5600 1779 c0 -8 14 -32 30 -53 17 -22 30 -43 30 -47 0 -5 -52 -6
-115 -2 -75 4 -119 2 -127 -5 -7 -5 -30 -13 -51 -17 -47 -9 -43 -27 9 -40 46
-11 71 -37 80 -83 6 -31 2 -37 -50 -87 -32 -29 -69 -56 -84 -60 -40 -10 -52
-24 -52 -62 0 -34 1 -34 33 -28 17 4 61 21 97 37 54 24 73 28 115 23 34 -5 64
-2 95 9 25 9 64 16 88 16 47 0 55 15 23 44 -14 13 -28 16 -50 11 -28 -6 -31
-4 -31 19 0 31 28 105 47 126 7 8 28 20 46 26 18 6 31 18 30 25 -4 34 -21 110
-26 115 -3 3 -27 11 -53 19 -27 7 -57 16 -66 20 -12 5 -18 3 -18 -6z"/>
<path d="M10213 1451 l-22 -18 25 -13 c29 -16 32 -34 4 -25 -33 11 -13 -21 25
-39 19 -9 37 -20 39 -25 6 -9 74 -26 89 -22 5 1 21 3 36 5 14 1 36 8 49 15 29
16 30 57 1 64 -15 4 -20 11 -15 22 3 10 -1 18 -12 21 -9 3 -28 11 -42 17 -14
6 -54 12 -90 13 -50 2 -70 -2 -87 -15z"/>
<path d="M4579 1348 c-11 -8 -10 -9 4 -4 21 7 22 2 1 -19 -13 -12 -19 -13 -24
-5 -4 7 -6 -15 -4 -49 2 -52 7 -64 34 -91 30 -30 54 -38 64 -22 3 5 -1 49 -8
98 -7 49 -12 91 -11 94 6 9 -43 8 -56 -2z"/>
<path d="M6615 1323 c19 -44 25 -52 25 -30 0 9 -4 19 -10 22 -5 3 -10 15 -10
26 0 10 -5 19 -10 19 -6 0 -4 -16 5 -37z"/>
<path d="M5869 1338 c-7 -32 -1 -78 11 -82 12 -3 11 -4 -2 -5 -10 0 -16 -7
-13 -13 4 -15 17 -95 18 -120 1 -10 4 -18 7 -18 3 0 7 -8 8 -17 1 -10 3 -26 4
-37 5 -30 59 -86 109 -111 25 -13 64 -40 88 -59 24 -20 46 -36 50 -36 5 0 23
-23 42 -52 154 -235 229 -415 229 -554 0 -56 14 -90 50 -124 19 -18 32 -42 36
-69 l7 -41 75 0 c59 0 78 4 88 17 18 24 17 30 -7 36 -11 3 -23 15 -26 26 -3
12 -9 21 -13 21 -14 0 -30 61 -30 110 0 39 5 51 33 77 46 44 69 53 130 53 49
0 61 -4 106 -40 27 -22 55 -49 61 -60 6 -11 18 -20 28 -19 10 0 12 3 5 6 -7 2
-13 17 -13 32 0 15 -3 31 -7 35 -4 4 -9 18 -10 32 -5 31 -60 123 -76 126 -7 0
-17 2 -22 2 -20 2 -86 46 -91 60 -4 11 -14 13 -35 9 -19 -4 -29 -1 -29 6 0 8
-8 10 -20 6 -11 -4 -20 -2 -20 4 0 6 -17 11 -38 11 -21 0 -43 5 -50 12 -7 7
-28 11 -48 10 -40 -3 -64 11 -64 38 0 10 -4 20 -10 22 -5 2 -10 19 -12 38 -2
39 -12 50 -46 50 -19 0 -22 5 -20 27 2 19 -3 30 -18 38 -12 6 -29 17 -38 24
-15 13 -15 15 0 32 9 10 22 15 29 12 8 -2 22 0 32 6 15 8 11 10 -23 11 -22 0
-44 -3 -48 -7 -12 -12 -57 -10 -53 2 6 16 -12 45 -28 45 -21 0 -18 20 6 46 24
26 19 54 -10 54 -10 0 -21 7 -25 15 -3 8 -11 14 -18 13 -6 -2 -17 9 -24 23 -8
14 -25 31 -39 39 -21 11 -24 18 -19 46 5 25 1 35 -16 47 -12 8 -31 12 -43 9
-12 -3 -16 -7 -9 -10 6 -2 12 -8 12 -13 0 -20 -23 -7 -57 31 -20 22 -43 40
-52 40 -12 0 -13 2 -3 9 10 6 10 10 -3 21 -8 7 -15 21 -15 31 0 14 -18 38 -21
27z m471 -649 c0 -14 -17 -10 -23 5 -4 10 -1 13 9 9 7 -3 14 -9 14 -14z"/>
<path d="M7417 1324 c-8 -8 1 -24 14 -24 5 0 9 7 9 15 0 15 -12 20 -23 9z"/>
<path d="M5693 1235 c-20 -22 -16 -25 27 -25 33 0 40 3 40 20 0 15 -7 20 -27
20 -16 -1 -34 -7 -40 -15z"/>
<path d="M5234 1192 c-9 -20 -18 -67 -21 -104 -5 -57 -3 -69 11 -74 35 -13
134 65 192 150 30 45 32 51 17 57 -10 3 -28 3 -40 -2 -13 -5 -28 -7 -35 -5 -7
3 -34 7 -60 10 -48 6 -48 5 -64 -32z"/>
<path d="M7430 1200 c-12 -8 -10 -10 8 -10 13 0 20 4 17 10 -7 12 -6 12 -25 0z"/>
<path d="M4638 1093 c-13 -30 -32 -53 -43 -53 -4 0 -14 -8 -23 -17 -16 -16
-16 -16 1 -10 11 4 17 2 17 -8 0 -8 6 -15 13 -15 9 0 9 -2 0 -8 -14 -9 -12
-34 5 -54 11 -13 42 -113 46 -150 4 -28 18 -36 15 -8 -2 23 4 90 17 181 4 30
9 36 25 32 27 -7 24 11 -7 42 -19 19 -24 34 -22 57 4 44 -26 51 -44 11z"/>
<path d="M6983 1092 c-12 -2 -25 -12 -28 -22 -3 -10 -12 -20 -19 -23 -7 -3
-25 -30 -40 -60 -22 -43 -33 -54 -52 -54 -13 0 -24 3 -24 8 0 8 -6 17 -53 72
-21 25 -45 10 -30 -19 6 -11 18 -55 28 -99 11 -49 33 -106 56 -147 22 -36 39
-70 39 -74 0 -4 20 -48 44 -98 56 -118 70 -151 92 -211 9 -27 23 -57 31 -66 7
-8 13 -22 13 -31 0 -8 3 -18 8 -22 7 -8 8 -13 11 -41 2 -29 27 -15 74 43 26
31 53 64 60 72 6 8 11 18 10 22 -2 4 6 10 17 13 11 4 18 11 15 16 -4 5 0 9 7
9 8 0 31 9 53 20 22 11 47 20 56 20 26 0 74 -61 88 -113 8 -25 22 -54 32 -63
17 -15 20 -16 44 0 14 9 25 21 25 25 0 5 11 23 25 39 19 23 51 112 42 118 -10
7 -58 13 -54 7 3 -4 -15 -6 -40 -4 -39 3 -53 11 -113 68 -62 58 -76 79 -144
216 -41 84 -88 194 -104 244 -17 51 -38 100 -47 110 -18 17 -83 31 -122 25z
m162 -442 c33 -11 68 -23 78 -27 10 -3 16 -12 13 -19 -3 -8 1 -14 10 -14 8 0
12 -4 9 -10 -3 -5 -17 -10 -31 -10 -16 0 -23 4 -18 11 4 8 -3 9 -26 4 -19 -4
-30 -3 -27 2 3 5 -39 16 -93 26 -92 15 -140 36 -140 61 0 15 160 -2 225 -24z"/>
<path d="M6725 1050 c-3 -5 -1 -10 4 -10 6 0 11 5 11 10 0 6 -2 10 -4 10 -3 0
-8 -4 -11 -10z"/>
<path d="M5231 967 c-7 -9 -10 -25 -6 -34 6 -17 7 -17 16 0 6 10 9 25 7 34 -3
15 -4 15 -17 0z"/>
<path d="M4845 785 c-5 -2 -22 -6 -36 -9 -37 -8 -52 -49 -42 -111 5 -27 14
-50 20 -52 7 -3 22 18 34 47 13 29 35 60 53 72 17 12 33 23 35 25 2 1 -2 9 -9
18 -12 14 -32 18 -55 10z"/>
<path d="M6416 745 c4 -8 13 -15 21 -15 13 0 13 3 3 15 -7 8 -16 15 -21 15 -5
0 -6 -7 -3 -15z"/>
<path d="M4647 723 c-13 -12 -7 -33 8 -33 8 0 15 9 15 20 0 20 -11 26 -23 13z"/>
<path d="M5218 708 c-6 -33 5 -81 20 -86 17 -5 16 82 -2 97 -11 9 -14 7 -18
-11z"/>
<path d="M6520 665 c0 -8 9 -15 20 -15 11 0 20 7 20 15 0 8 -9 15 -20 15 -11
0 -20 -7 -20 -15z"/>
<path d="M12200 600 c0 -5 9 -10 21 -10 11 0 17 5 14 10 -3 6 -13 10 -21 10
-8 0 -14 -4 -14 -10z"/>
<path d="M12486 602 c-2 -2 -49 -5 -104 -6 -78 -2 -104 -6 -117 -19 -9 -9 -28
-17 -43 -17 -20 0 -23 -3 -12 -9 8 -6 26 -7 41 -4 15 3 36 0 48 -6 14 -8 21
-8 21 -1 0 5 -5 10 -11 10 -5 0 -7 5 -3 11 5 8 9 7 14 -1 6 -10 23 -11 67 -5
78 11 114 10 122 -3 4 -7 19 -8 46 -2 22 5 59 7 83 5 47 -4 62 9 38 33 -13 13
-37 17 -101 18 -47 0 -87 -1 -89 -4z"/>
<path d="M13070 545 c0 -8 2 -15 4 -15 2 0 6 7 10 15 3 8 1 15 -4 15 -6 0 -10
-7 -10 -15z"/>
<path d="M13200 521 c0 -6 9 -11 20 -11 11 0 20 -7 20 -15 0 -24 -37 -55 -65
-55 -46 0 -85 -27 -85 -59 0 -16 7 -34 15 -41 12 -10 15 -10 15 0 0 10 3 10
15 0 18 -15 19 -30 2 -30 -7 0 -17 -10 -22 -22 -13 -30 -36 -33 -63 -8 -14 13
-30 19 -41 15 -11 -3 -26 1 -34 10 -18 18 -31 20 -21 4 5 -8 -5 -10 -32 -7
-22 3 -49 1 -62 -3 -14 -6 -31 -5 -43 1 -16 9 -19 7 -19 -10 0 -16 -5 -20 -17
-16 -10 3 -30 -1 -45 -8 -15 -8 -52 -18 -83 -21 -30 -4 -53 -11 -50 -15 3 -4
-9 -13 -25 -20 -36 -15 -124 -7 -148 12 -8 7 -27 14 -41 15 -14 1 -44 5 -66 8
-59 9 -60 9 -95 -5 -23 -9 -28 -15 -18 -21 11 -7 10 -11 -2 -20 -11 -8 -12
-12 -2 -16 19 -7 14 -21 -10 -29 -21 -7 -20 -9 12 -14 34 -6 34 -7 11 -17 -16
-6 -20 -12 -13 -17 7 -4 10 -12 7 -17 -4 -5 19 -9 52 -10 47 0 55 -2 41 -12
-14 -9 -6 -14 50 -28 40 -10 85 -15 112 -12 30 3 59 0 84 -11 34 -14 111 -16
675 -15 l636 0 -48 20 c-35 14 -53 16 -67 9 -11 -6 -28 -7 -42 -1 -13 5 -27 9
-33 9 -13 1 -19 22 -6 22 6 0 11 7 11 15 0 8 -4 15 -9 15 -5 0 -19 14 -31 30
-18 25 -19 34 -10 45 7 8 21 15 31 15 11 0 19 5 19 10 0 6 -7 10 -15 10 -9 0
-29 10 -45 21 -18 14 -35 19 -47 15 -17 -7 -17 -8 -1 -20 20 -14 14 -26 -13
-26 -24 0 -49 27 -43 45 8 19 74 32 83 16 11 -18 53 17 49 42 -4 28 -28 35
-28 8 0 -26 -33 -28 -80 -4 -25 12 -35 13 -38 5 -12 -36 -55 -54 -66 -27 -5
15 12 37 41 54 10 5 14 15 10 25 -5 13 -11 15 -26 6 -28 -15 -39 -13 -46 10
-3 11 -10 20 -15 20 -5 0 -12 -9 -15 -20 -3 -11 -14 -20 -23 -20 -10 0 -23 9
-30 20 -10 17 -10 20 6 20 17 0 48 37 38 47 -3 3 -27 8 -53 11 -44 5 -47 4
-34 -12 11 -13 11 -20 3 -28 -9 -9 -12 -8 -12 5 0 10 -4 25 -9 35 -5 9 -13 31
-18 47 -5 20 -16 31 -31 33 -12 2 -22 -1 -22 -7z m60 -137 c0 -2 -9 -4 -21 -4
-11 0 -18 4 -14 10 5 8 35 3 35 -6z m150 -59 c0 -8 -4 -15 -10 -15 -5 0 -10 7
-10 15 0 8 5 15 10 15 6 0 10 -7 10 -15z m-130 -55 c0 -5 -4 -10 -9 -10 -6 0
-13 5 -16 10 -3 6 1 10 9 10 9 0 16 -4 16 -10z m270 0 c0 -5 -7 -10 -15 -10
-8 0 -15 5 -15 10 0 6 7 10 15 10 8 0 15 -4 15 -10z m-120 -76 c0 -2 -9 -4
-21 -4 -11 0 -18 4 -14 10 5 8 35 3 35 -6z m31 -66 c49 -6 96 -38 84 -57 -4
-7 6 -14 24 -17 17 -4 31 -10 31 -14 0 -12 -94 1 -105 15 -7 8 -37 13 -85 13
-77 0 -156 24 -145 42 9 14 38 12 71 -5 43 -22 54 -19 54 16 0 24 3 29 13 22
6 -6 33 -13 58 -15z m139 -18 c0 -5 -4 -10 -9 -10 -6 0 -13 5 -16 10 -3 6 1
10 9 10 9 0 16 -4 16 -10z m43 -50 c-3 -11 -11 -20 -18 -20 -7 0 -15 9 -18 20
-4 16 0 20 18 20 18 0 22 -4 18 -20z m-206 -26 c-3 -3 -12 -4 -19 -1 -8 3 -5
6 6 6 11 1 17 -2 13 -5z"/>
<path d="M13120 510 c0 -5 -7 -10 -15 -10 -8 0 -15 -7 -15 -15 0 -8 -7 -15
-16 -15 -14 0 -14 -3 -4 -15 12 -14 17 -12 42 15 15 17 26 36 23 41 -8 12 -15
12 -15 -1z"/>
<path d="M10445 453 c-38 -6 -136 -88 -128 -108 7 -19 62 -19 87 0 11 8 34 15
50 15 26 1 28 2 13 11 -15 9 -16 12 -2 25 12 12 23 69 13 63 -2 -1 -16 -4 -33
-6z"/>
<path d="M10725 442 c-22 -19 -135 -60 -184 -67 -43 -6 -51 -9 -37 -17 9 -5
23 -7 30 -5 8 3 29 2 49 -3 19 -4 71 -4 114 1 43 4 108 3 146 -2 146 -20 160
-20 168 -8 12 19 1 29 -31 29 -16 0 -41 5 -57 12 -15 6 -47 10 -70 9 -33 -2
-43 1 -43 13 0 9 -8 16 -20 16 -13 0 -18 5 -14 15 5 11 -1 15 -18 15 -13 0
-28 -4 -33 -8z"/>
<path d="M13600 373 c0 -13 5 -23 10 -23 13 0 13 11 0 30 -8 12 -10 11 -10 -7z"/>
<path d="M8941 356 c-12 -5 -21 -13 -21 -18 0 -5 -11 -13 -25 -18 -21 -8 -32
-5 -57 13 -22 16 -32 18 -35 10 -3 -8 -22 -13 -44 -13 -21 0 -39 -4 -39 -10 0
-9 14 -14 33 -11 4 0 7 -4 7 -10 0 -5 -16 -17 -35 -25 -20 -8 -38 -21 -42 -29
-7 -21 -123 -21 -123 -1 0 14 -29 26 -68 26 -21 0 -31 -5 -67 -38 -8 -7 -19
-11 -25 -7 -5 3 -27 -6 -49 -20 -23 -14 -45 -25 -51 -25 -5 0 -10 -6 -10 -14
0 -17 -23 -27 -40 -16 -10 6 -10 9 1 16 8 5 14 22 14 37 1 25 -2 27 -27 22
-17 -4 -28 -2 -28 4 0 6 -11 11 -25 11 -14 0 -36 6 -48 14 -12 8 -44 17 -70
21 -44 6 -51 4 -73 -21 l-25 -26 -29 27 c-20 20 -43 29 -82 33 -47 6 -55 10
-68 39 -8 18 -22 33 -30 33 -23 0 -117 -28 -97 -29 9 -1 17 -5 17 -11 0 -5 6
-10 13 -10 21 0 36 -43 30 -86 -4 -33 1 -47 30 -89 20 -27 48 -69 64 -92 l28
-42 464 -1 c261 0 480 4 500 9 20 6 83 22 141 37 158 41 370 136 370 166 0 5
-10 8 -22 7 -13 -2 -33 2 -45 9 -12 7 -28 12 -35 12 -14 0 -31 19 -51 60 -18
36 -82 64 -149 65 -31 0 -66 -4 -77 -9z"/>
<path d="M13016 355 c-26 -20 -13 -45 24 -45 22 0 30 5 30 18 0 17 -18 42 -29
42 -4 0 -14 -7 -25 -15z"/>
<path d="M13668 233 c7 -3 16 -2 19 1 4 3 -2 6 -13 5 -11 0 -14 -3 -6 -6z"/>
<path d="M11858 219 c-10 -5 -18 -7 -18 -3 0 4 -8 0 -17 -8 -10 -8 -33 -20
-51 -26 -18 -6 -40 -19 -49 -28 -15 -15 -14 -16 13 -13 16 2 34 0 40 -4 14 -8
241 12 322 29 12 2 22 12 22 21 0 13 -8 15 -43 10 -35 -5 -45 -3 -55 13 -10
17 -23 20 -80 20 -37 0 -75 -5 -84 -11z"/>
<path d="M10580 168 c0 -4 9 -30 20 -58 11 -28 20 -64 20 -80 0 -29 1 -30 50
-30 33 0 50 4 50 13 0 13 -139 167 -140 155z"/>
<path d="M7070 123 c0 -21 3 -24 9 -14 5 8 7 20 4 28 -8 21 -13 15 -13 -14z"/>
<path d="M11615 136 c-32 -12 -54 -33 -55 -53 0 -19 137 -18 156 1 8 8 14 17
14 20 0 5 -49 30 -80 42 -3 1 -18 -3 -35 -10z"/>
<path d="M12080 135 c-10 -12 -10 -15 3 -15 23 0 47 11 47 21 0 15 -37 10 -50
-6z"/>
<path d="M11465 90 c-4 -6 7 -10 27 -10 25 0 29 3 18 10 -19 13 -37 13 -45 0z"/>
<path d="M6070 10 c-11 -7 0 -10 38 -10 28 0 52 5 52 10 0 13 -70 13 -90 0z"/>
<path d="M6258 3 c6 -2 18 -2 25 0 6 3 1 5 -13 5 -14 0 -19 -2 -12 -5z"/>
</g>
</svg>
